<svg width="235" height="182" viewBox="0 0 235 182" fill="none" xmlns="http://www.w3.org/2000/svg">
<g filter="url(#filter0_d_6_2285)">
<rect x="14" y="16" width="205" height="152" rx="20" fill="white"/>
<path d="M40.0181 44.2134L36.897 54H34.0083L38.4824 41.9141H40.3086L40.0181 44.2134ZM42.6079 54L39.4785 44.2134L39.1548 41.9141H41.0059L45.4966 54H42.6079ZM42.4751 49.501V51.5928H36.1748V49.501H42.4751ZM48.6343 46.7451V57.4531H46.0444V45.0186H48.46L48.6343 46.7451ZM54.2373 49.4097V49.584C54.2373 50.237 54.1626 50.8429 54.0132 51.4019C53.8638 51.9552 53.6396 52.4395 53.3408 52.8545C53.0475 53.2695 52.6851 53.5933 52.2534 53.8257C51.8218 54.0526 51.321 54.166 50.751 54.166C50.2087 54.166 49.7383 54.0526 49.3398 53.8257C48.9469 53.5933 48.6149 53.2723 48.3438 52.8628C48.0781 52.4478 47.8623 51.9746 47.6963 51.4434C47.5358 50.9066 47.4113 50.3338 47.3228 49.7251V49.3848C47.4113 48.7373 47.5386 48.1369 47.7046 47.5835C47.8706 47.0301 48.0864 46.5514 48.3521 46.1475C48.6177 45.738 48.9469 45.4198 49.3398 45.1929C49.7327 44.966 50.2004 44.8525 50.7427 44.8525C51.3071 44.8525 51.8079 44.9604 52.2451 45.1763C52.6823 45.3921 53.0475 45.702 53.3408 46.106C53.6396 46.5044 53.8638 46.9831 54.0132 47.542C54.1626 48.1009 54.2373 48.7235 54.2373 49.4097ZM51.6392 49.584V49.4097C51.6392 49.0444 51.6115 48.7096 51.5562 48.4053C51.5008 48.0954 51.4123 47.827 51.2905 47.6001C51.1688 47.3677 51.0083 47.1878 50.8091 47.0605C50.6099 46.9333 50.3664 46.8696 50.0786 46.8696C49.7687 46.8696 49.5059 46.9194 49.29 47.019C49.0742 47.1187 48.8999 47.2653 48.7671 47.459C48.6343 47.6471 48.5374 47.8796 48.4766 48.1562C48.4212 48.4329 48.3908 48.7484 48.3853 49.1025V50.0156C48.3908 50.4307 48.4489 50.8014 48.5596 51.1279C48.6758 51.4489 48.8556 51.7007 49.0991 51.8833C49.3481 52.0604 49.6802 52.1489 50.0952 52.1489C50.3885 52.1489 50.632 52.0853 50.8257 51.958C51.0249 51.8252 51.1826 51.6398 51.2988 51.4019C51.4206 51.1639 51.5063 50.89 51.5562 50.5801C51.6115 50.2702 51.6392 49.9382 51.6392 49.584ZM58.2134 46.7451V57.4531H55.6235V45.0186H58.0391L58.2134 46.7451ZM63.8164 49.4097V49.584C63.8164 50.237 63.7417 50.8429 63.5923 51.4019C63.4429 51.9552 63.2188 52.4395 62.9199 52.8545C62.6266 53.2695 62.2642 53.5933 61.8325 53.8257C61.4009 54.0526 60.9001 54.166 60.3301 54.166C59.7878 54.166 59.3174 54.0526 58.9189 53.8257C58.526 53.5933 58.194 53.2723 57.9229 52.8628C57.6572 52.4478 57.4414 51.9746 57.2754 51.4434C57.1149 50.9066 56.9904 50.3338 56.9019 49.7251V49.3848C56.9904 48.7373 57.1177 48.1369 57.2837 47.5835C57.4497 47.0301 57.6655 46.5514 57.9312 46.1475C58.1968 45.738 58.526 45.4198 58.9189 45.1929C59.3118 44.966 59.7795 44.8525 60.3218 44.8525C60.8862 44.8525 61.387 44.9604 61.8242 45.1763C62.2614 45.3921 62.6266 45.702 62.9199 46.106C63.2188 46.5044 63.4429 46.9831 63.5923 47.542C63.7417 48.1009 63.8164 48.7235 63.8164 49.4097ZM61.2183 49.584V49.4097C61.2183 49.0444 61.1906 48.7096 61.1353 48.4053C61.0799 48.0954 60.9914 47.827 60.8696 47.6001C60.7479 47.3677 60.5874 47.1878 60.3882 47.0605C60.189 46.9333 59.9455 46.8696 59.6577 46.8696C59.3478 46.8696 59.085 46.9194 58.8691 47.019C58.6533 47.1187 58.479 47.2653 58.3462 47.459C58.2134 47.6471 58.1165 47.8796 58.0557 48.1562C58.0003 48.4329 57.9699 48.7484 57.9644 49.1025V50.0156C57.9699 50.4307 58.028 50.8014 58.1387 51.1279C58.2549 51.4489 58.4347 51.7007 58.6782 51.8833C58.9272 52.0604 59.2593 52.1489 59.6743 52.1489C59.9676 52.1489 60.2111 52.0853 60.4048 51.958C60.604 51.8252 60.7617 51.6398 60.8779 51.4019C60.9997 51.1639 61.0854 50.89 61.1353 50.5801C61.1906 50.2702 61.2183 49.9382 61.2183 49.584ZM67.9253 41.25V54H65.3271V41.25H67.9253ZM72.5239 45.0186V54H69.9258V45.0186H72.5239ZM69.7681 42.6943C69.7681 42.318 69.9009 42.0109 70.1665 41.7729C70.4321 41.5295 70.7808 41.4077 71.2124 41.4077C71.644 41.4077 71.9927 41.5295 72.2583 41.7729C72.5295 42.0109 72.665 42.318 72.665 42.6943C72.665 43.0651 72.5295 43.3722 72.2583 43.6157C71.9927 43.8537 71.644 43.9727 71.2124 43.9727C70.7808 43.9727 70.4321 43.8537 70.1665 43.6157C69.9009 43.3722 69.7681 43.0651 69.7681 42.6943ZM78.1436 52.1489C78.4202 52.1489 78.661 52.0964 78.8657 51.9912C79.0705 51.8861 79.2282 51.7394 79.3389 51.5513C79.4551 51.3576 79.5132 51.1252 79.5132 50.854H81.9536C81.9536 51.507 81.7848 52.0825 81.4473 52.5806C81.1152 53.0786 80.667 53.4688 80.1025 53.751C79.5381 54.0277 78.9017 54.166 78.1934 54.166C77.4961 54.166 76.8874 54.0526 76.3672 53.8257C75.847 53.5933 75.4126 53.2695 75.064 52.8545C74.7153 52.4395 74.4525 51.958 74.2754 51.4102C74.1038 50.8568 74.0181 50.2591 74.0181 49.6172V49.4014C74.0181 48.765 74.1038 48.1701 74.2754 47.6167C74.4525 47.0633 74.7153 46.5791 75.064 46.1641C75.4126 45.749 75.8442 45.4281 76.3589 45.2012C76.8791 44.9688 77.4878 44.8525 78.1851 44.8525C78.9211 44.8525 79.5713 44.9937 80.1357 45.2759C80.7057 45.5581 81.1512 45.9648 81.4722 46.4961C81.7931 47.0218 81.9536 47.6554 81.9536 48.397H79.5132C79.5132 48.1092 79.4606 47.8519 79.3555 47.625C79.2559 47.3926 79.1009 47.21 78.8906 47.0771C78.6859 46.9388 78.4313 46.8696 78.127 46.8696C77.8115 46.8696 77.5514 46.9388 77.3467 47.0771C77.1475 47.21 76.9953 47.3953 76.8901 47.6333C76.785 47.8713 76.7131 48.1424 76.6743 48.4468C76.6356 48.7456 76.6162 49.0638 76.6162 49.4014V49.6172C76.6162 49.9603 76.6356 50.2868 76.6743 50.5967C76.7131 50.901 76.785 51.1694 76.8901 51.4019C77.0008 51.6343 77.1558 51.8169 77.355 51.9497C77.5542 52.0825 77.8171 52.1489 78.1436 52.1489ZM87.9966 51.8584V48.0068C87.9966 47.7357 87.9551 47.5033 87.8721 47.3096C87.7891 47.1159 87.659 46.9637 87.4819 46.853C87.3049 46.7424 87.0752 46.687 86.793 46.687C86.555 46.687 86.3475 46.7285 86.1704 46.8115C85.9989 46.8945 85.866 47.0135 85.772 47.1685C85.6834 47.3234 85.6392 47.5143 85.6392 47.7412H83.0493C83.0493 47.3372 83.1406 46.9609 83.3232 46.6123C83.5059 46.2637 83.766 45.9565 84.1035 45.6909C84.4466 45.4253 84.8561 45.2205 85.332 45.0767C85.8079 44.9272 86.342 44.8525 86.9341 44.8525C87.6369 44.8525 88.2622 44.9715 88.8101 45.2095C89.3634 45.4419 89.8006 45.7933 90.1216 46.2637C90.4425 46.7285 90.603 47.3151 90.603 48.0234V51.7837C90.603 52.326 90.6335 52.7521 90.6943 53.062C90.7607 53.3664 90.8548 53.632 90.9766 53.8589V54H88.3618C88.2401 53.7399 88.1488 53.4189 88.0879 53.0371C88.027 52.6497 87.9966 52.2568 87.9966 51.8584ZM88.3203 48.5215L88.3369 49.9492H87.0503C86.7625 49.9492 86.5135 49.9852 86.3032 50.0571C86.0985 50.1291 85.9325 50.2287 85.8052 50.356C85.6779 50.4777 85.5838 50.6216 85.5229 50.7876C85.4676 50.9481 85.4399 51.1252 85.4399 51.3188C85.4399 51.5015 85.4842 51.6675 85.5728 51.8169C85.6613 51.9608 85.783 52.0742 85.938 52.1572C86.0929 52.2402 86.2728 52.2817 86.4775 52.2817C86.8151 52.2817 87.1029 52.2153 87.3408 52.0825C87.5843 51.9497 87.7725 51.7892 87.9053 51.6011C88.0381 51.4074 88.1045 51.2275 88.1045 51.0615L88.7271 52.1406C88.6274 52.362 88.5057 52.5916 88.3618 52.8296C88.2179 53.062 88.0353 53.2806 87.814 53.4854C87.5926 53.6846 87.3242 53.8478 87.0088 53.9751C86.6989 54.1024 86.3254 54.166 85.8882 54.166C85.3237 54.166 84.8118 54.0526 84.3525 53.8257C83.8932 53.5933 83.5252 53.2751 83.2485 52.8711C82.9774 52.4671 82.8418 52.0023 82.8418 51.4766C82.8418 51.0062 82.9276 50.5884 83.0991 50.2231C83.2707 49.8579 83.528 49.548 83.8711 49.2935C84.2197 49.0389 84.6569 48.848 85.1826 48.7207C85.7083 48.5879 86.3226 48.5215 87.0254 48.5215H88.3203ZM96.8701 45.0186V46.8364H91.541V45.0186H96.8701ZM92.7612 42.7939H95.3594V51.186C95.3594 51.4351 95.3898 51.626 95.4507 51.7588C95.5116 51.8916 95.6112 51.9857 95.7495 52.041C95.8879 52.0908 96.0649 52.1157 96.2808 52.1157C96.4357 52.1157 96.5685 52.1102 96.6792 52.0991C96.7899 52.0881 96.8923 52.0742 96.9863 52.0576V53.9336C96.765 54.0055 96.5298 54.0609 96.2808 54.0996C96.0317 54.1439 95.7606 54.166 95.4673 54.166C94.9084 54.166 94.4242 54.0747 94.0146 53.8921C93.6107 53.7095 93.3008 53.4217 93.085 53.0288C92.8691 52.6304 92.7612 52.113 92.7612 51.4766V42.7939ZM100.846 45.0186V54H98.248V45.0186H100.846ZM98.0903 42.6943C98.0903 42.318 98.2231 42.0109 98.4888 41.7729C98.7544 41.5295 99.103 41.4077 99.5347 41.4077C99.9663 41.4077 100.315 41.5295 100.581 41.7729C100.852 42.0109 100.987 42.318 100.987 42.6943C100.987 43.0651 100.852 43.3722 100.581 43.6157C100.315 43.8537 99.9663 43.9727 99.5347 43.9727C99.103 43.9727 98.7544 43.8537 98.4888 43.6157C98.2231 43.3722 98.0903 43.0651 98.0903 42.6943ZM102.34 49.6006V49.4263C102.34 48.7677 102.434 48.1618 102.623 47.6084C102.811 47.0495 103.087 46.5653 103.453 46.1558C103.818 45.7463 104.266 45.4281 104.797 45.2012C105.329 44.9688 105.937 44.8525 106.624 44.8525C107.321 44.8525 107.935 44.9688 108.466 45.2012C109.003 45.4281 109.454 45.7463 109.819 46.1558C110.185 46.5653 110.461 47.0495 110.649 47.6084C110.838 48.1618 110.932 48.7677 110.932 49.4263V49.6006C110.932 50.2536 110.838 50.8595 110.649 51.4185C110.461 51.9718 110.185 52.4561 109.819 52.8711C109.454 53.2806 109.006 53.5988 108.475 53.8257C107.943 54.0526 107.332 54.166 106.64 54.166C105.954 54.166 105.342 54.0526 104.806 53.8257C104.269 53.5988 103.818 53.2806 103.453 52.8711C103.087 52.4561 102.811 51.9718 102.623 51.4185C102.434 50.8595 102.34 50.2536 102.34 49.6006ZM104.938 49.4263V49.6006C104.938 49.9548 104.966 50.2868 105.021 50.5967C105.082 50.9066 105.179 51.1777 105.312 51.4102C105.445 51.6426 105.619 51.8252 105.835 51.958C106.056 52.0853 106.325 52.1489 106.64 52.1489C106.956 52.1489 107.221 52.0853 107.437 51.958C107.653 51.8252 107.827 51.6426 107.96 51.4102C108.093 51.1777 108.187 50.9066 108.242 50.5967C108.303 50.2868 108.333 49.9548 108.333 49.6006V49.4263C108.333 49.0776 108.303 48.7511 108.242 48.4468C108.187 48.1369 108.093 47.863 107.96 47.625C107.827 47.387 107.65 47.2017 107.429 47.0688C107.213 46.936 106.944 46.8696 106.624 46.8696C106.314 46.8696 106.051 46.936 105.835 47.0688C105.619 47.2017 105.445 47.387 105.312 47.625C105.179 47.863 105.082 48.1369 105.021 48.4468C104.966 48.7511 104.938 49.0776 104.938 49.4263ZM114.833 46.936V54H112.235V45.0186H114.675L114.833 46.936ZM114.493 49.1938L113.845 49.2104C113.845 48.5353 113.928 47.9294 114.094 47.3926C114.26 46.8558 114.495 46.3993 114.8 46.0229C115.11 45.6411 115.478 45.3506 115.904 45.1514C116.335 44.9521 116.811 44.8525 117.332 44.8525C117.752 44.8525 118.137 44.9134 118.485 45.0352C118.834 45.1569 119.133 45.3534 119.382 45.6245C119.636 45.8901 119.83 46.2443 119.963 46.687C120.096 47.1242 120.162 47.6637 120.162 48.3057V54H117.556V48.2974C117.556 47.9211 117.503 47.6305 117.398 47.4258C117.293 47.221 117.138 47.0771 116.933 46.9941C116.734 46.9111 116.49 46.8696 116.203 46.8696C115.898 46.8696 115.638 46.9305 115.422 47.0522C115.207 47.1685 115.029 47.3317 114.891 47.542C114.753 47.7523 114.65 47.9985 114.584 48.2808C114.523 48.563 114.493 48.8674 114.493 49.1938ZM126.637 51.5015C126.637 51.3354 126.584 51.1888 126.479 51.0615C126.379 50.9342 126.197 50.818 125.931 50.7129C125.671 50.6077 125.303 50.5026 124.827 50.3975C124.379 50.3034 123.961 50.1816 123.574 50.0322C123.186 49.8773 122.849 49.6919 122.561 49.4761C122.273 49.2547 122.049 48.9946 121.889 48.6958C121.728 48.3914 121.648 48.0456 121.648 47.6582C121.648 47.2819 121.728 46.925 121.889 46.5874C122.055 46.2498 122.293 45.951 122.603 45.6909C122.918 45.4308 123.3 45.2261 123.748 45.0767C124.202 44.9272 124.716 44.8525 125.292 44.8525C126.083 44.8525 126.767 44.9771 127.342 45.2261C127.918 45.4696 128.361 45.8127 128.67 46.2554C128.98 46.6925 129.135 47.1934 129.135 47.7578H126.545C126.545 47.5254 126.501 47.3234 126.413 47.1519C126.324 46.9803 126.188 46.8475 126.006 46.7534C125.823 46.6538 125.583 46.604 125.284 46.604C125.051 46.604 124.847 46.6455 124.669 46.7285C124.498 46.806 124.362 46.9139 124.263 47.0522C124.169 47.1906 124.122 47.3511 124.122 47.5337C124.122 47.661 124.149 47.7772 124.205 47.8823C124.265 47.9819 124.357 48.076 124.479 48.1646C124.606 48.2476 124.769 48.3223 124.968 48.3887C125.173 48.4551 125.422 48.5187 125.715 48.5796C126.341 48.6958 126.911 48.859 127.425 49.0693C127.945 49.2796 128.361 49.5701 128.67 49.9409C128.986 50.3117 129.144 50.8014 129.144 51.4102C129.144 51.8086 129.052 52.1738 128.87 52.5059C128.693 52.8379 128.435 53.1284 128.098 53.3774C127.76 53.6265 127.356 53.8201 126.886 53.9585C126.415 54.0968 125.884 54.166 125.292 54.166C124.445 54.166 123.729 54.0138 123.142 53.7095C122.556 53.4051 122.113 53.0233 121.814 52.564C121.521 52.0991 121.374 51.6232 121.374 51.1362H123.806C123.817 51.4351 123.892 51.6785 124.03 51.8667C124.174 52.0549 124.36 52.1932 124.586 52.2817C124.813 52.3647 125.068 52.4062 125.35 52.4062C125.632 52.4062 125.868 52.3675 126.056 52.29C126.244 52.2126 126.388 52.1074 126.487 51.9746C126.587 51.8363 126.637 51.6785 126.637 51.5015Z" fill="#03002E"/>
<path fill-rule="evenodd" clip-rule="evenodd" d="M180 46C178.895 46 178 46.8954 178 48C178 49.1046 178.895 50 180 50C181.105 50 182 49.1046 182 48C182 46.8954 181.105 46 180 46ZM185 48C185 46.8954 185.895 46 187 46C188.105 46 189 46.8954 189 48C189 49.1046 188.105 50 187 50C185.895 50 185 49.1046 185 48ZM192 48C192 46.8954 192.895 46 194 46C195.105 46 196 46.8954 196 48C196 49.1046 195.105 50 194 50C192.895 50 192 49.1046 192 48Z" fill="#03002E"/>
<path d="M40.2754 117.226L35.8262 116.18L37.2871 103.828H51.415V108.178H41.8525L41.3047 112.976C41.5703 112.821 42.0186 112.638 42.6494 112.428C43.2913 112.206 43.9997 112.096 44.7744 112.096C45.9697 112.096 47.0267 112.278 47.9453 112.644C48.875 112.998 49.6608 113.523 50.3027 114.221C50.9447 114.907 51.4261 115.754 51.7471 116.761C52.0791 117.768 52.2451 118.919 52.2451 120.214C52.2451 121.254 52.0736 122.261 51.7305 123.235C51.3984 124.198 50.8838 125.067 50.1865 125.842C49.5003 126.605 48.6315 127.214 47.5801 127.668C46.5286 128.111 45.2835 128.332 43.8447 128.332C42.7712 128.332 41.7253 128.166 40.707 127.834C39.6888 127.502 38.7702 127.026 37.9512 126.406C37.1432 125.775 36.5013 125.017 36.0254 124.132C35.5605 123.235 35.3337 122.234 35.3447 121.127H40.9727C41.0059 121.714 41.1442 122.223 41.3877 122.654C41.6312 123.086 41.9577 123.424 42.3672 123.667C42.7878 123.899 43.2692 124.016 43.8115 124.016C44.3649 124.016 44.8242 123.905 45.1895 123.684C45.5547 123.462 45.8424 123.158 46.0527 122.771C46.263 122.383 46.4124 121.94 46.501 121.442C46.5895 120.933 46.6338 120.396 46.6338 119.832C46.6338 119.234 46.5674 118.698 46.4346 118.222C46.3128 117.746 46.1136 117.342 45.8369 117.01C45.5602 116.667 45.2005 116.407 44.7578 116.229C44.3262 116.052 43.806 115.964 43.1973 115.964C42.3893 115.964 41.7529 116.102 41.2881 116.379C40.8232 116.656 40.4857 116.938 40.2754 117.226ZM71.661 113.706V118.122C71.661 119.86 71.4562 121.37 71.0467 122.654C70.6483 123.938 70.0728 125.001 69.3202 125.842C68.5786 126.683 67.6932 127.308 66.6639 127.718C65.6346 128.127 64.5002 128.332 63.2606 128.332C62.2645 128.332 61.3348 128.205 60.4715 127.95C59.6082 127.685 58.828 127.286 58.1307 126.755C57.4445 126.213 56.8524 125.537 56.3543 124.729C55.8563 123.922 55.4745 122.97 55.2088 121.874C54.9432 120.767 54.8104 119.517 54.8104 118.122V113.706C54.8104 111.957 55.0096 110.447 55.408 109.174C55.8176 107.89 56.3986 106.827 57.1512 105.986C57.9038 105.145 58.7948 104.52 59.8241 104.11C60.8534 103.701 61.9878 103.496 63.2274 103.496C64.2235 103.496 65.1476 103.629 65.9998 103.895C66.8631 104.149 67.6434 104.548 68.3407 105.09C69.0379 105.621 69.6301 106.291 70.117 107.099C70.6151 107.907 70.9969 108.864 71.2625 109.971C71.5282 111.066 71.661 112.312 71.661 113.706ZM66.0662 118.803V112.992C66.0662 112.217 66.022 111.542 65.9334 110.967C65.856 110.391 65.7342 109.904 65.5682 109.506C65.4133 109.107 65.2196 108.786 64.9871 108.543C64.7547 108.288 64.4891 108.106 64.1903 107.995C63.9025 107.873 63.5815 107.812 63.2274 107.812C62.7847 107.812 62.3862 107.907 62.0321 108.095C61.689 108.272 61.3957 108.56 61.1522 108.958C60.9087 109.356 60.7205 109.888 60.5877 110.552C60.466 111.216 60.4051 112.029 60.4051 112.992V118.803C60.4051 119.589 60.4439 120.275 60.5213 120.861C60.6099 121.437 60.7316 121.929 60.8866 122.339C61.0526 122.737 61.2518 123.064 61.4842 123.318C61.7166 123.562 61.9823 123.739 62.2811 123.85C62.5799 123.96 62.9064 124.016 63.2606 124.016C63.6922 124.016 64.0796 123.927 64.4227 123.75C64.7658 123.573 65.0591 123.285 65.3026 122.887C65.5571 122.477 65.7453 121.94 65.867 121.276C65.9998 120.601 66.0662 119.777 66.0662 118.803ZM91.0436 113.706V118.122C91.0436 119.86 90.8389 121.37 90.4294 122.654C90.0309 123.938 89.4554 125.001 88.7028 125.842C87.9613 126.683 87.0759 127.308 86.0466 127.718C85.0173 128.127 83.8828 128.332 82.6432 128.332C81.6471 128.332 80.7175 128.205 79.8542 127.95C78.9909 127.685 78.2106 127.286 77.5134 126.755C76.8272 126.213 76.235 125.537 75.737 124.729C75.2389 123.922 74.8571 122.97 74.5915 121.874C74.3259 120.767 74.193 119.517 74.193 118.122V113.706C74.193 111.957 74.3923 110.447 74.7907 109.174C75.2002 107.89 75.7813 106.827 76.5339 105.986C77.2865 105.145 78.1774 104.52 79.2067 104.11C80.236 103.701 81.3705 103.496 82.61 103.496C83.6061 103.496 84.5303 103.629 85.3825 103.895C86.2458 104.149 87.0261 104.548 87.7233 105.09C88.4206 105.621 89.0127 106.291 89.4997 107.099C89.9977 107.907 90.3796 108.864 90.6452 109.971C90.9108 111.066 91.0436 112.312 91.0436 113.706ZM85.4489 118.803V112.992C85.4489 112.217 85.4046 111.542 85.3161 110.967C85.2386 110.391 85.1169 109.904 84.9509 109.506C84.7959 109.107 84.6022 108.786 84.3698 108.543C84.1374 108.288 83.8718 108.106 83.5729 107.995C83.2852 107.873 82.9642 107.812 82.61 107.812C82.1673 107.812 81.7689 107.907 81.4147 108.095C81.0716 108.272 80.7783 108.56 80.5348 108.958C80.2914 109.356 80.1032 109.888 79.9704 110.552C79.8486 111.216 79.7878 112.029 79.7878 112.992V118.803C79.7878 119.589 79.8265 120.275 79.904 120.861C79.9925 121.437 80.1143 121.929 80.2692 122.339C80.4352 122.737 80.6345 123.064 80.8669 123.318C81.0993 123.562 81.3649 123.739 81.6637 123.85C81.9626 123.96 82.2891 124.016 82.6432 124.016C83.0749 124.016 83.4623 123.927 83.8054 123.75C84.1485 123.573 84.4417 123.285 84.6852 122.887C84.9398 122.477 85.1279 121.94 85.2497 121.276C85.3825 120.601 85.4489 119.777 85.4489 118.803Z" fill="#03002E"/>
<path d="M100.497 128V125.322H98.066V124.048H100.497V121.357H101.758V124.048H104.202V125.322H101.758V128H100.497ZM106.539 128V126.7H108.684V121.084H106.526V120.109C106.786 120.083 107.089 120.022 107.436 119.927C107.791 119.823 108.151 119.697 108.515 119.55C108.879 119.403 109.208 119.247 109.503 119.082H110.283V126.7H112.259V128H106.539ZM116.486 128.156C115.862 128.156 115.312 128.039 114.835 127.805C114.367 127.571 114.003 127.237 113.743 126.804C113.483 126.362 113.353 125.838 113.353 125.231H114.991C114.991 125.56 115.052 125.851 115.173 126.102C115.294 126.345 115.468 126.531 115.693 126.661C115.918 126.791 116.183 126.856 116.486 126.856C116.781 126.856 117.036 126.791 117.253 126.661C117.47 126.531 117.639 126.336 117.76 126.076C117.89 125.807 117.955 125.478 117.955 125.088C117.955 124.724 117.894 124.425 117.773 124.191C117.652 123.948 117.483 123.771 117.266 123.658C117.049 123.537 116.802 123.476 116.525 123.476C116.317 123.476 116.126 123.511 115.953 123.58C115.78 123.649 115.628 123.74 115.498 123.853C115.368 123.957 115.255 124.078 115.16 124.217L113.652 124.022L114.016 119.082H119.138V120.525H115.394L115.251 122.722C115.372 122.635 115.511 122.553 115.667 122.475C115.823 122.397 116.005 122.332 116.213 122.28C116.43 122.228 116.677 122.202 116.954 122.202C117.448 122.202 117.894 122.306 118.293 122.514C118.692 122.722 119.008 123.038 119.242 123.463C119.476 123.888 119.593 124.429 119.593 125.088C119.593 125.738 119.467 126.293 119.216 126.752C118.965 127.211 118.605 127.562 118.137 127.805C117.678 128.039 117.127 128.156 116.486 128.156ZM122.65 128L129.176 119.082H130.437L123.885 128H122.65ZM123.508 123.619C123.075 123.619 122.698 123.55 122.377 123.411C122.057 123.264 121.81 123.021 121.636 122.683C121.472 122.345 121.389 121.877 121.389 121.279C121.389 120.672 121.472 120.2 121.636 119.862C121.81 119.524 122.057 119.286 122.377 119.147C122.698 119 123.075 118.926 123.508 118.926C123.95 118.926 124.327 119 124.639 119.147C124.951 119.286 125.19 119.524 125.354 119.862C125.528 120.2 125.614 120.672 125.614 121.279C125.614 121.877 125.528 122.349 125.354 122.696C125.19 123.034 124.951 123.272 124.639 123.411C124.327 123.55 123.95 123.619 123.508 123.619ZM123.508 122.657C123.864 122.657 124.098 122.54 124.21 122.306C124.323 122.072 124.379 121.756 124.379 121.357V121.188C124.379 120.928 124.353 120.703 124.301 120.512C124.258 120.313 124.171 120.161 124.041 120.057C123.92 119.944 123.742 119.888 123.508 119.888C123.162 119.888 122.928 120.009 122.806 120.252C122.694 120.486 122.637 120.798 122.637 121.188V121.357C122.637 121.756 122.694 122.072 122.806 122.306C122.928 122.54 123.162 122.657 123.508 122.657ZM129.54 128.156C129.107 128.156 128.73 128.087 128.409 127.948C128.097 127.801 127.855 127.558 127.681 127.22C127.517 126.882 127.434 126.414 127.434 125.816C127.434 125.209 127.517 124.737 127.681 124.399C127.855 124.061 128.097 123.823 128.409 123.684C128.73 123.537 129.107 123.463 129.54 123.463C129.982 123.463 130.359 123.537 130.671 123.684C130.992 123.823 131.235 124.061 131.399 124.399C131.564 124.737 131.646 125.209 131.646 125.816C131.646 126.414 131.564 126.886 131.399 127.233C131.235 127.571 130.992 127.809 130.671 127.948C130.359 128.087 129.982 128.156 129.54 128.156ZM129.54 127.194C129.896 127.194 130.13 127.077 130.242 126.843C130.355 126.6 130.411 126.28 130.411 125.881V125.725C130.411 125.465 130.385 125.24 130.333 125.049C130.29 124.85 130.208 124.698 130.086 124.594C129.965 124.481 129.783 124.425 129.54 124.425C129.194 124.425 128.964 124.546 128.851 124.789C128.739 125.023 128.682 125.335 128.682 125.725V125.881C128.682 126.28 128.739 126.6 128.851 126.843C128.964 127.077 129.194 127.194 129.54 127.194Z" fill="#464454"/>
</g>
<defs>
<filter id="filter0_d_6_2285" x="0" y="0" width="235" height="182" filterUnits="userSpaceOnUse" color-interpolation-filters="sRGB">
<feFlood flood-opacity="0" result="BackgroundImageFix"/>
<feColorMatrix in="SourceAlpha" type="matrix" values="0 0 0 0 0 0 0 0 0 0 0 0 0 0 0 0 0 0 127 0" result="hardAlpha"/>
<feOffset dx="1" dy="-1"/>
<feGaussianBlur stdDeviation="7.5"/>
<feColorMatrix type="matrix" values="0 0 0 0 0.941176 0 0 0 0 0.694771 0 0 0 0 0.431373 0 0 0 0.2 0"/>
<feBlend mode="normal" in2="BackgroundImageFix" result="effect1_dropShadow_6_2285"/>
<feBlend mode="normal" in="SourceGraphic" in2="effect1_dropShadow_6_2285" result="shape"/>
</filter>
</defs>
</svg>
