<svg width="81" height="36" viewBox="0 0 81 36" fill="none" xmlns="http://www.w3.org/2000/svg">
<path d="M8.61993 22.0329C8.61993 22.5675 8.50687 23.0642 8.28073 23.5236C8.0546 23.9764 7.7342 24.3662 7.33207 24.6809C6.92373 25.0016 6.44007 25.2469 5.88073 25.4229C5.32167 25.599 4.70607 25.687 4.04007 25.687C3.24207 25.687 2.52607 25.5801 1.89807 25.36C1.26987 25.1462 0.635399 24.7814 0.000732422 24.278L1.05007 22.5734C1.5526 22.9948 2.00473 23.3027 2.4134 23.498C2.81547 23.693 3.23007 23.7874 3.6574 23.7874C4.1788 23.7874 4.5934 23.6552 4.91407 23.3848C5.23447 23.1144 5.3852 22.7559 5.3852 22.2968C5.3852 22.1019 5.35379 21.9195 5.29727 21.7497C5.24073 21.5798 5.13393 21.4038 4.9832 21.2214C4.8324 21.0453 4.61887 20.844 4.34873 20.6365C4.08487 20.4289 3.7394 20.1648 3.31207 19.8565C2.99167 19.6301 2.67133 19.3911 2.3634 19.1518C2.0556 18.9066 1.7792 18.6487 1.5214 18.3718C1.27013 18.0951 1.06913 17.787 0.912066 17.4412C0.761266 17.1016 0.679666 16.7052 0.679666 16.2712C0.679666 15.768 0.786466 15.3025 0.993732 14.8872C1.201 14.4718 1.49 14.1198 1.8544 13.8245C2.21873 13.5289 2.6524 13.3025 3.16707 13.1392C3.67587 12.9756 4.2284 12.8939 4.83173 12.8939C5.4662 12.8939 6.07573 12.9756 6.66573 13.1455C7.2562 13.3153 7.80307 13.5606 8.31173 13.8875L7.36307 15.4222C6.71607 14.9693 6.03107 14.7368 5.31507 14.7368C4.8816 14.7368 4.51707 14.85 4.2344 15.0764C3.95173 15.3028 3.8072 15.5859 3.8072 15.9318C3.8072 16.2588 3.93287 16.5544 4.18413 16.8124C4.4354 17.0766 4.8688 17.4351 5.4848 17.9131C6.10673 18.366 6.62213 18.7684 7.02413 19.1078C7.43247 19.4474 7.7528 19.7744 7.99147 20.0764C8.2302 20.3784 8.38727 20.6802 8.48147 20.9944C8.57567 21.3152 8.61967 21.6548 8.61967 22.0324L8.61993 22.0329ZM19.3933 19.1589C19.3933 19.6306 19.343 20.1402 19.2425 20.6869C19.1483 21.2341 18.9787 21.7376 18.74 22.2029C18.5013 22.6683 18.1935 23.0522 17.81 23.3476C17.4268 23.6494 16.9367 23.8004 16.3527 23.8004C15.3727 23.8004 14.6 23.4104 14.0347 22.6244C13.4693 21.8444 13.1867 20.769 13.1867 19.4044C13.1867 18.0017 13.4693 16.895 14.0473 16.071C14.619 15.247 15.398 14.8384 16.378 14.8384C17.308 14.8384 18.0427 15.2283 18.5827 15.9957C19.1229 16.769 19.3933 17.8257 19.3933 19.159L19.3933 19.1589ZM22.7979 19.0394C22.7979 18.1274 22.666 17.2974 22.4085 16.5554C22.1446 15.8067 21.7803 15.1654 21.2965 14.6247C20.8128 14.0838 20.2471 13.6687 19.5878 13.3667C18.9285 13.0647 18.1998 12.9139 17.4018 12.9139C16.5225 12.9139 15.7498 13.0837 15.0838 13.4108C14.4179 13.7441 13.7958 14.2661 13.2305 14.9828L13.2117 13.2028H10.077V31.4961H13.2057V23.7694C13.5135 24.1279 13.8087 24.4298 14.0977 24.6748C14.3803 24.92 14.6693 25.1213 14.9643 25.2722C15.2595 25.4232 15.5673 25.5364 15.8937 25.5993C16.2203 25.6622 16.5723 25.6936 16.943 25.6936C17.7723 25.6936 18.551 25.5238 19.267 25.1968C19.983 24.8634 20.605 24.3981 21.1263 23.7941C21.6477 23.1901 22.0563 22.4861 22.3517 21.6874C22.6532 20.8821 22.7977 19.9954 22.7977 19.0394L22.7979 19.0394ZM24.1926 25.398H27.4086V7.49805H24.1926V25.398ZM41.1259 25.4043V13.191H37.9099V19.763C37.9099 20.3479 37.8848 20.801 37.8345 21.1216C37.7843 21.4424 37.7026 21.7254 37.5895 21.9896C37.1373 22.9956 36.3015 23.5056 35.0895 23.5056C34.1409 23.5056 33.4815 23.166 33.1042 22.4803C32.9535 22.2224 32.8529 21.9268 32.7964 21.5996C32.7399 21.2726 32.7085 20.801 32.7085 20.1783V13.1916H29.4925V20.1316C29.4925 20.6033 29.4987 21.0056 29.5051 21.3263C29.5113 21.647 29.5365 21.9426 29.5679 22.1943C29.5993 22.4459 29.6369 22.6723 29.6809 22.8676C29.7186 23.0626 29.7815 23.2512 29.8631 23.4274C30.1583 24.176 30.6298 24.742 31.2891 25.1254C31.9487 25.509 32.7591 25.6977 33.7138 25.6977C34.5745 25.6977 35.3345 25.5467 35.9878 25.2448C36.6411 24.943 37.2758 24.4522 37.8911 23.7668L37.8974 25.4022L41.1261 25.4084L41.1259 25.4043ZM54.9859 25.398V18.4714C54.9859 17.9996 54.9797 17.5974 54.9733 17.264C54.9671 16.9307 54.9483 16.6414 54.9105 16.396C54.8791 16.1507 54.8352 15.9369 54.7912 15.7545C54.7409 15.5658 54.6844 15.3834 54.6216 15.2073C54.3263 14.478 53.8549 13.912 53.1956 13.5153C52.5363 13.1186 51.7256 12.9178 50.7643 12.9178C49.9036 12.9178 49.1436 13.0688 48.4903 13.3706C47.8369 13.6725 47.2023 14.1693 46.5869 14.8486L46.5807 13.2133H43.3453V25.4H46.5867V18.8213C46.5867 18.2552 46.6055 17.8086 46.6495 17.494C46.6871 17.1795 46.7689 16.8839 46.8819 16.6006C47.0892 16.11 47.4159 15.7453 47.8493 15.494C48.2827 15.2426 48.7979 15.1166 49.4006 15.1166C50.3493 15.1166 51.0086 15.4562 51.3859 16.142C51.5305 16.3998 51.6309 16.6954 51.6875 17.016C51.744 17.3368 51.7754 17.8146 51.7754 18.4313V25.3846L54.9854 25.391L54.9859 25.398ZM68.2926 24.5927L63.3933 18.498L67.5326 14.058L65.0953 13.008L60.7859 18.008H60.4467V7.50138H57.2054V25.4014H60.4467V18.9174L65.2961 25.644L68.2921 24.5934L68.2926 24.5927ZM80.8193 20.2154V18.2214L71.0726 13.328V15.5227L78.6259 19.202L71.0726 22.9314V25.076L80.8193 20.2147V20.2154ZM72.0193 10.162C71.4226 10.162 70.9386 10.6526 70.9386 11.2567C70.9386 11.873 71.4226 12.3574 72.0193 12.3574C72.6226 12.3574 73.0999 11.8731 73.0999 11.2567C73.0999 10.6466 72.6226 10.162 72.0193 10.162ZM72.0259 10.3318C72.5093 10.3318 72.8986 10.7469 72.8986 11.2625C72.8986 11.7782 72.5093 12.1932 72.0259 12.1872C71.5359 12.1872 71.1459 11.7784 71.1459 11.2565C71.1459 10.747 71.5359 10.3318 72.0259 10.3318ZM71.8186 11.3698H71.9499C72.1073 11.3698 72.1826 11.4265 72.2139 11.5837C72.2393 11.7472 72.2706 11.8542 72.2959 11.8919H72.5033C72.4839 11.8542 72.4526 11.7787 72.4279 11.59C72.4026 11.4076 72.3333 11.3133 72.2206 11.2944V11.2819C72.3526 11.2441 72.4593 11.1435 72.4593 10.9863C72.4593 10.8731 72.4213 10.785 72.3459 10.7347C72.2706 10.6781 72.1513 10.6403 71.9693 10.6403C71.8246 10.6403 71.7239 10.6529 71.6239 10.6718V11.8918H71.8186V11.3698V11.3698ZM71.8186 10.8038C71.8499 10.7975 71.8939 10.7912 71.9566 10.7912C72.1766 10.7912 72.2519 10.8981 72.2519 11.0051C72.2519 11.156 72.1133 11.2126 71.9566 11.2126H71.8186V10.8038V10.8038Z" fill="#0C1724"/>
</svg>
