<svg width="102" height="36" viewBox="0 0 102 36" fill="none" xmlns="http://www.w3.org/2000/svg">
<g clip-path="url(#clip0_6_3087)">
<path d="M73.8253 10.5389H71.8212V25.5433H79.9516V23.68H73.8253V10.5389ZM87.6909 22.9118C87.1858 23.4349 86.3386 23.9579 85.198 23.9579C83.6664 23.9579 83.0473 23.206 83.0473 22.209C83.0473 20.7216 84.0738 20.0025 86.2734 20.0025C86.6807 20.0025 87.3487 20.0515 87.6909 20.1169V22.9118ZM85.6216 13.8242C83.9923 13.8242 82.5096 14.3962 81.3528 15.3606L82.0697 16.6028C82.8844 16.1288 83.8945 15.6384 85.3447 15.6384C86.9903 15.6384 87.7235 16.4883 87.7235 17.9103V18.6458C87.3976 18.5805 86.7459 18.5314 86.3223 18.5314C82.8029 18.5314 81.0269 19.7736 81.0269 22.3561C81.0269 24.6771 82.4444 25.8375 84.5952 25.8375C86.0453 25.8375 87.4302 25.1674 87.9027 24.0886L88.2612 25.5597H89.6787V17.8776C89.6624 15.4423 88.6033 13.8242 85.6216 13.8242ZM96.1471 24.0396C95.3976 24.0396 94.7296 23.9415 94.2245 23.7127V16.7825C94.9088 16.2105 95.7561 15.8019 96.8315 15.8019C98.7704 15.8019 99.5199 17.1748 99.5199 19.3977C99.5362 22.5522 98.3142 24.0396 96.1471 24.0396ZM96.9944 13.8242C95.2021 13.8242 94.2245 15.05 94.2245 15.05V13.105V10.5389H92.253V25.1837C93.2306 25.5924 94.583 25.8212 96.0494 25.8212C99.7969 25.8212 101.605 23.4185 101.605 19.2669C101.605 15.998 99.9435 13.8242 96.9944 13.8242ZM51.9596 12.1733C53.7356 12.1733 54.8924 12.7617 55.6419 13.3665L56.5054 11.8628C55.3323 10.8331 53.7356 10.2773 52.0574 10.2773C47.7885 10.2773 44.7905 12.8925 44.7905 18.1555C44.7905 23.68 48.0166 25.8375 51.7152 25.8375C53.5726 25.8375 55.1368 25.3962 56.1633 24.9713L56.1144 19.0708V17.1912H50.6235V19.0545H54.1266L54.1755 23.5329C53.7193 23.7617 52.9209 23.9415 51.8455 23.9415C48.8802 23.9415 46.8924 22.0619 46.8924 18.1228C46.8924 14.1184 48.9453 12.1733 51.9596 12.1733ZM66.1022 10.5389H64.1307V13.0559V21.7677C64.1307 24.2031 65.1898 25.8212 68.1715 25.8212C68.5788 25.8212 68.9861 25.7885 69.3772 25.7068V23.9415C69.1002 23.9906 68.7906 24.0069 68.4648 24.0069C66.8191 24.0069 66.0859 23.157 66.0859 21.735V15.7365H69.3772V14.102H66.0859L66.1022 10.5389ZM59.145 25.5433H61.1165V14.102H59.145V25.5433ZM59.145 12.5166H61.1165V10.5389H59.145V12.5166Z" fill="black"/>
<path d="M17.8574 34.4999L24.4399 14.1997H11.2749L17.8574 34.4999Z" fill="black"/>
<path d="M17.8573 34.4999L11.2748 14.1997H2.06909L17.8573 34.4999Z" fill="black"/>
<path d="M2.06928 14.1997L0.0652031 20.3617C-0.114024 20.9174 0.0814965 21.5385 0.554003 21.8817L17.8412 34.4835L2.06928 14.1997Z" fill="black"/>
<path d="M2.06909 14.2H11.2911L7.31555 1.97418C7.12003 1.33673 6.22389 1.33673 6.02837 1.97418L2.06909 14.2Z" fill="black"/>
<path d="M17.8574 34.4999L24.4399 14.1997H33.662L17.8574 34.4999Z" fill="black"/>
<path d="M33.646 14.1997L35.6501 20.3617C35.8293 20.9174 35.6338 21.5385 35.1613 21.8817L17.874 34.4835L33.646 14.1997Z" fill="black"/>
<path d="M33.6459 14.2H24.4238L28.3831 1.97413C28.5949 1.35303 29.4748 1.35303 29.6703 1.97413L33.6459 14.2Z" fill="black"/>
</g>
<defs>
<clipPath id="clip0_6_3087">
<rect width="102" height="36" fill="white"/>
</clipPath>
</defs>
</svg>
