<svg width="101" height="36" viewBox="0 0 101 36" fill="none" xmlns="http://www.w3.org/2000/svg">
<path fill-rule="evenodd" clip-rule="evenodd" d="M13.0402 3.75C5.8355 3.75 0 9.59994 0 16.8225C0 22.6071 3.73276 27.4929 8.91625 29.225C9.56826 29.3394 9.81277 28.9472 9.81277 28.6041C9.81277 28.2936 9.79646 27.2642 9.79646 26.1693C6.52011 26.7739 5.6725 25.3686 5.41169 24.6333C5.26499 24.2575 4.62928 23.0973 4.07507 22.7868C3.61866 22.5417 2.96665 21.9371 4.05877 21.9208C5.08569 21.9044 5.8192 22.8685 6.0637 23.2607C7.23732 25.2379 9.11185 24.6823 9.86167 24.3392C9.97577 23.4895 10.3181 22.9175 10.693 22.5907C7.79153 22.2639 4.75968 21.1364 4.75968 16.1362C4.75968 14.7146 5.26499 13.538 6.0963 12.623C5.9659 12.2961 5.50949 10.9562 6.2267 9.15875C6.2267 9.15875 7.31882 8.81559 9.81277 10.4987C10.856 10.2045 11.9644 10.0575 13.0728 10.0575C14.1812 10.0575 15.2897 10.2045 16.3329 10.4987C18.8268 8.79925 19.9189 9.15875 19.9189 9.15875C20.6361 10.9562 20.1797 12.2961 20.0493 12.623C20.8807 13.538 21.386 14.6982 21.386 16.1362C21.386 21.1528 18.3378 22.2639 15.4364 22.5907C15.9091 22.9993 16.3166 23.7836 16.3166 25.0091C16.3166 26.7576 16.3003 28.1629 16.3003 28.6041C16.3003 28.9472 16.5448 29.3558 17.1968 29.225C19.7855 28.3489 22.035 26.6811 23.6286 24.4562C25.2222 22.2314 26.0797 19.5615 26.0804 16.8225C26.0804 9.59994 20.2449 3.75 13.0402 3.75Z" fill="#24292E"/>
<path d="M60.7913 23.1323H60.7609C60.7746 23.1323 60.7837 23.1475 60.7974 23.149H60.8065L60.7913 23.1338V23.1323ZM60.7974 23.149C60.6559 23.1506 60.2999 23.2253 59.9242 23.2253C58.7375 23.2253 58.3267 22.6762 58.3267 21.9594V17.1843H60.7457C60.8826 17.1843 60.9891 17.0623 60.9891 16.8945V14.3018C60.9891 14.1645 60.8674 14.0425 60.7457 14.0425H58.3267V10.8245C58.3267 10.7025 58.2507 10.6262 58.1137 10.6262H54.8276C54.6907 10.6262 54.6146 10.7025 54.6146 10.8245V14.134C54.6146 14.134 52.9563 14.5458 52.8498 14.5611C52.7281 14.5916 52.6521 14.6983 52.6521 14.8203V16.8945C52.6521 17.0623 52.7738 17.1843 52.9107 17.1843H54.5994V22.1867C54.5994 25.908 57.1857 26.2893 58.9505 26.2893C59.7568 26.2893 60.7305 26.03 60.8826 25.9537C60.9739 25.9232 61.0195 25.8165 61.0195 25.7097V23.422C61.0216 23.3571 61.0003 23.2937 60.9595 23.2433C60.9187 23.1928 60.8612 23.1588 60.7974 23.1475V23.149ZM96.8475 19.7922C96.8475 17.0318 95.7369 16.6657 94.5655 16.7877C93.6527 16.8487 92.9224 17.3063 92.9224 17.3063V22.6747C92.9224 22.6747 93.6679 23.1933 94.7785 23.2238C96.3455 23.2695 96.8475 22.7052 96.8475 19.7922ZM100.544 19.5482C100.544 24.7794 98.8557 26.274 95.9043 26.274C93.4093 26.274 92.0705 25.0082 92.0705 25.0082C92.0705 25.0082 92.0096 25.7097 91.9335 25.8012C91.8879 25.8927 91.8118 25.9232 91.7206 25.9232H89.4689C89.3168 25.9232 89.1799 25.8012 89.1799 25.664L89.2103 8.71983C89.2103 8.58257 89.332 8.46056 89.4689 8.46056H92.7094C92.8464 8.46056 92.9681 8.58257 92.9681 8.71983V14.4696C92.9681 14.4696 94.2156 13.6612 96.0412 13.6612L96.026 13.6307C97.8516 13.6307 100.544 14.317 100.544 19.5482ZM87.2782 14.0425H84.0833C83.916 14.0425 83.8247 14.1645 83.8247 14.3323V22.629C83.8247 22.629 82.988 23.2238 81.8469 23.2238C80.7059 23.2238 80.3712 22.7052 80.3712 21.5614V14.317C80.3712 14.1798 80.2495 14.0578 80.1126 14.0578H76.8569C76.72 14.0578 76.5983 14.1798 76.5983 14.317V22.1104C76.5983 25.4657 78.4695 26.3045 81.0406 26.3045C83.1553 26.3045 84.8744 25.1302 84.8744 25.1302C84.8744 25.1302 84.9505 25.725 84.9961 25.8165C85.0266 25.8927 85.1331 25.9537 85.2396 25.9537H87.2782C87.4455 25.9537 87.5368 25.8317 87.5368 25.6945L87.5673 14.3018C87.5673 14.1645 87.4455 14.0425 87.2782 14.0425ZM51.222 14.0273H47.9815C47.8446 14.0273 47.7229 14.1645 47.7229 14.3323V25.5267C47.7229 25.8317 47.9206 25.9385 48.1793 25.9385H51.1003C51.4045 25.9385 51.4806 25.8012 51.4806 25.5267V14.2865C51.4806 14.1493 51.3589 14.0273 51.222 14.0273ZM49.6246 8.87235C48.4531 8.87235 47.5251 9.80267 47.5251 10.977C47.5251 12.1514 48.4531 13.0817 49.6246 13.0817C50.7656 13.0817 51.6936 12.1514 51.6936 10.977C51.6936 9.80267 50.7656 8.87235 49.6246 8.87235ZM74.7118 8.49107H71.5017C71.3648 8.49107 71.2431 8.61307 71.2431 8.75034V14.9881H66.2074V8.75034C66.2074 8.61307 66.0857 8.49107 65.9487 8.49107H62.7082C62.5713 8.49107 62.4496 8.61307 62.4496 8.75034V25.6945C62.4496 25.8317 62.5865 25.9537 62.7082 25.9537H65.9487C66.0857 25.9537 66.2074 25.8317 66.2074 25.6945V18.4501H71.2431L71.2126 25.6945C71.2126 25.8317 71.3343 25.9537 71.4713 25.9537H74.7118C74.8487 25.9537 74.9704 25.8317 74.9704 25.6945V8.75034C74.9704 8.61307 74.8487 8.49107 74.7118 8.49107ZM46.0037 15.9947V24.7489C46.0037 24.8099 45.9885 24.9167 45.9124 24.9472C45.9124 24.9472 44.0107 26.3045 40.8767 26.3045C37.0886 26.3045 32.6005 25.1149 32.6005 17.2758C32.6005 9.43664 36.5257 7.82001 40.3595 7.83526C43.676 7.83526 45.0148 8.58257 45.2278 8.71983C45.2887 8.79609 45.3191 8.8571 45.3191 8.93335L44.6801 11.6481C44.6801 11.7853 44.5432 11.9531 44.3759 11.9073C43.8282 11.7396 43.0066 11.4041 41.0745 11.4041C38.8381 11.4041 36.4344 12.0446 36.4344 17.0928C36.4344 22.1409 38.7164 22.7357 40.3595 22.7357C41.7591 22.7357 42.2612 22.568 42.2612 22.568V19.0602H40.0248C39.8574 19.0602 39.7357 18.9382 39.7357 18.8009V15.9947C39.7357 15.8574 39.8574 15.7354 40.0248 15.7354H45.7147C45.882 15.7354 46.0037 15.8574 46.0037 15.9947Z" fill="#24292E"/>
</svg>
