<svg width="95" height="36" viewBox="0 0 95 36" fill="none" xmlns="http://www.w3.org/2000/svg">
<path fill-rule="evenodd" clip-rule="evenodd" d="M91.9755 23.9851C92.0324 24.6373 92.5526 25.4674 93.4545 25.4674H93.9815C94.1864 25.4674 94.3539 25.2994 94.3539 25.0943V13.465H94.3513C94.3411 13.2691 94.1796 13.1121 93.9815 13.1121H92.3478C92.1497 13.1121 91.9882 13.2691 91.978 13.465H91.9755V14.4099C90.9741 13.1725 89.3956 12.6589 87.8128 12.6589C84.2145 12.6589 81.2977 15.5857 81.2977 19.1964C81.2977 22.8073 84.2145 25.7341 87.8128 25.7341C89.3956 25.7341 91.1212 25.1182 91.9755 23.9837V23.9851ZM87.8188 23.4461C85.5305 23.4461 83.6754 21.5436 83.6754 19.1964C83.6754 16.8496 85.5305 14.947 87.8188 14.947C90.1079 14.947 91.9627 16.8496 91.9627 19.1964C91.9627 21.5436 90.1079 23.4461 87.8188 23.4461Z" fill="#0D0E10"/>
<path fill-rule="evenodd" clip-rule="evenodd" d="M79.231 18.3674C79.231 14.9753 77.0984 12.6869 73.6975 12.6869C72.0741 12.6869 70.7432 13.6289 70.2732 14.438C70.1716 13.8053 69.8368 13.1403 68.7987 13.1403H68.2695C68.0649 13.1403 67.8977 13.3084 67.8977 13.5135V24.0142C67.8977 24.0145 67.8977 24.0153 67.8977 24.0158V25.1438H67.8998C67.9105 25.3394 68.0721 25.4965 68.2697 25.4965H69.9039C69.9289 25.4965 69.9535 25.4935 69.9772 25.4889C69.988 25.4868 69.998 25.4825 70.0086 25.4795C70.0207 25.4758 70.0334 25.4729 70.0449 25.4681C70.0595 25.462 70.0726 25.454 70.0862 25.4464C70.0928 25.4423 70.0998 25.4395 70.1061 25.4352C70.1225 25.4246 70.1374 25.4119 70.1519 25.399C70.1542 25.3966 70.1571 25.395 70.1594 25.3928C70.1757 25.377 70.1905 25.3596 70.2036 25.3415C70.2445 25.2852 70.2695 25.217 70.2736 25.1438H70.2757V18.2741C70.2757 16.4523 71.7477 14.9753 73.5635 14.9753C75.3792 14.9753 76.8513 16.4523 76.8513 18.2741L76.8527 24.0163L76.8531 24.0142C76.8531 24.0193 76.8539 24.0245 76.8539 24.03V25.1438H76.8561C76.8669 25.3394 77.0283 25.4965 77.2259 25.4965H78.8602C78.8853 25.4965 78.9097 25.4935 78.9333 25.4889C78.943 25.4871 78.952 25.4832 78.9615 25.4805C78.9748 25.4766 78.9886 25.4733 79.0014 25.4681C79.0148 25.4626 79.0269 25.4548 79.0396 25.4476C79.0473 25.4433 79.0554 25.4401 79.0628 25.4352C79.0778 25.4252 79.0917 25.4132 79.1053 25.4014C79.1087 25.3981 79.1126 25.3957 79.1158 25.3925C79.1314 25.3775 79.1452 25.3613 79.1577 25.3443C79.1587 25.3431 79.1597 25.342 79.1606 25.3408C79.2009 25.2849 79.2256 25.2175 79.2298 25.1447C79.2298 25.1442 79.23 25.1438 79.23 25.1438H79.2322L79.231 18.3674Z" fill="#0D0E10"/>
<path fill-rule="evenodd" clip-rule="evenodd" d="M62.2122 23.9851C62.2693 24.6372 62.7896 25.4673 63.691 25.4673H64.2183C64.4228 25.4673 64.5901 25.2994 64.5901 25.0942V13.465H64.588C64.5774 13.2691 64.4157 13.1121 64.2183 13.1121H62.5841C62.3865 13.1121 62.2251 13.2691 62.214 13.465H62.2122V14.4099C61.2108 13.1725 59.6322 12.6589 58.0492 12.6589C54.451 12.6589 51.5342 15.5857 51.5342 19.1964C51.5342 22.8072 54.451 25.7342 58.0492 25.7342C59.6322 25.7342 61.3575 25.1183 62.212 23.9836L62.2122 23.9851ZM58.0556 23.4461C55.7673 23.4461 53.912 21.5437 53.912 19.1964C53.912 16.8496 55.7673 14.947 58.0556 14.947C60.3441 14.947 62.1991 16.8496 62.1991 19.1964C62.1991 21.5437 60.3441 23.4461 58.0556 23.4461Z" fill="#0D0E10"/>
<path fill-rule="evenodd" clip-rule="evenodd" d="M41.8702 22.3195C42.9612 23.0779 44.152 23.4462 45.2963 23.4462C46.3865 23.4462 47.5135 22.8791 47.5135 21.892C47.5135 20.5743 45.0577 20.3692 43.5147 19.843C41.9714 19.3168 40.6422 18.229 40.6422 16.4675C40.6422 13.772 43.0358 12.6587 45.2699 12.6587C46.6853 12.6587 48.1458 13.127 49.0926 13.798C49.4187 14.0459 49.2201 14.3305 49.2201 14.3305L48.3163 15.6258C48.2147 15.7717 48.0371 15.8978 47.7821 15.7399C47.5271 15.5821 46.6328 14.9469 45.2699 14.9469C43.9067 14.9469 43.0857 15.5785 43.0857 16.3614C43.0857 17.3002 44.1528 17.5954 45.4027 17.9154C47.5809 18.5045 49.957 19.2127 49.957 21.892C49.957 24.267 47.7431 25.7347 45.2963 25.7347C43.4421 25.7347 41.8634 25.2043 40.5394 24.2294C40.2636 23.9524 40.4562 23.6952 40.4562 23.6952L41.3556 22.4065C41.5386 22.1655 41.7693 22.2496 41.8702 22.3195Z" fill="#0D0E10"/>
<path fill-rule="evenodd" clip-rule="evenodd" d="M35.5877 23.9851C35.6449 24.6372 36.1652 25.4673 37.0665 25.4673H37.5939C37.7983 25.4673 37.9659 25.2994 37.9659 25.0942V13.465H37.9636C37.9529 13.2691 37.7915 13.1121 37.5939 13.1121H35.9597C35.7621 13.1121 35.6007 13.2691 35.5897 13.465H35.5877V14.4099C34.5865 13.1725 33.0079 12.6589 31.4249 12.6589C27.8267 12.6589 24.9097 15.5857 24.9097 19.1964C24.9097 22.8072 27.8267 25.7342 31.4249 25.7342C33.0079 25.7342 34.733 25.1183 35.5875 23.9836L35.5877 23.9851ZM31.4312 23.4461C29.1428 23.4461 27.2876 21.5437 27.2876 19.1964C27.2876 16.8496 29.1428 14.947 31.4312 14.947C33.7196 14.947 35.5746 16.8496 35.5746 19.1964C35.5746 21.5437 33.7196 23.4461 31.4312 23.4461Z" fill="#0D0E10"/>
<path fill-rule="evenodd" clip-rule="evenodd" d="M15.7756 19.6411C13.3542 19.6411 11.3912 21.6092 11.3912 24.0372C11.3912 26.4651 13.3542 28.4333 15.7756 28.4333C18.1971 28.4333 20.1601 26.4651 20.1601 24.0372C20.1601 21.6092 18.1971 19.6411 15.7756 19.6411ZM4.38447 19.6415C1.96301 19.6415 0 21.6092 0 24.0372C0 26.4651 1.96301 28.4333 4.38447 28.4333C6.80603 28.4333 8.76914 26.4651 8.76914 24.0372C8.76914 21.6092 6.80603 19.6415 4.38447 19.6415ZM14.4645 14.1459C14.4645 16.5739 12.5016 18.5423 10.0801 18.5423C7.65853 18.5423 5.69561 16.5739 5.69561 14.1459C5.69561 11.7184 7.65853 9.75 10.0801 9.75C12.5016 9.75 14.4645 11.7184 14.4645 14.1459Z" fill="black"/>
</svg>
