<svg width="48" height="48" viewBox="0 0 48 48" fill="none" xmlns="http://www.w3.org/2000/svg">
<mask id="mask0_240_540" style="mask-type:luminance" maskUnits="userSpaceOnUse" x="0" y="0" width="48" height="48">
<path d="M48 0H0V48H48V0Z" fill="white"/>
</mask>
<g mask="url(#mask0_240_540)">
<path fill-rule="evenodd" clip-rule="evenodd" d="M24 5.28C24 2.36394 21.6361 0 18.72 0H5.28C2.36394 0 0 2.36393 0 5.28V18.8927C0 21.8087 2.36394 24.1726 5.28 24.1726H18.72C21.6361 24.1726 24 26.5366 24 29.4526V42.72C24 45.636 26.364 48 29.28 48H42.72C45.636 48 48 45.636 48 42.72V29.1072C48 26.1912 45.636 23.8273 42.72 23.8273H29.28C26.364 23.8273 24 21.4634 24 18.5473V5.28Z" fill="#FB8B40"/>
</g>
</svg>
