<svg width="248" height="51" viewBox="0 0 248 51" fill="none" xmlns="http://www.w3.org/2000/svg">
<path d="M4.52755 4.208V11.52H2.89541V4.208H4.52755ZM6.75229 4.208V5.47856H0.715876V4.208H6.75229ZM6.29027 8.85834V8.75288C6.29027 8.35447 6.34718 7.98787 6.46101 7.65307C6.57484 7.31492 6.74224 7.02198 6.96321 6.77423C7.18418 6.52647 7.45536 6.33397 7.77677 6.1967C8.09818 6.05608 8.46645 5.98578 8.8816 5.98578C9.30345 5.98578 9.67507 6.05608 9.99648 6.1967C10.3212 6.33397 10.5941 6.52647 10.8151 6.77423C11.036 7.02198 11.2034 7.31492 11.3173 7.65307C11.4311 7.98787 11.488 8.35447 11.488 8.75288V8.85834C11.488 9.25341 11.4311 9.62001 11.3173 9.95816C11.2034 10.293 11.036 10.5859 10.8151 10.837C10.5941 11.0848 10.3229 11.2773 10.0015 11.4145C9.6801 11.5518 9.31014 11.6204 8.89165 11.6204C8.4765 11.6204 8.10655 11.5518 7.78179 11.4145C7.45704 11.2773 7.18418 11.0848 6.96321 10.837C6.74224 10.5859 6.57484 10.293 6.46101 9.95816C6.34718 9.62001 6.29027 9.25341 6.29027 8.85834ZM7.86214 8.75288V8.85834C7.86214 9.07261 7.87888 9.27349 7.91236 9.46098C7.94919 9.64847 8.00778 9.81252 8.08813 9.95313C8.16848 10.0937 8.27394 10.2042 8.40452 10.2846C8.53843 10.3616 8.70081 10.4001 8.89165 10.4001C9.08248 10.4001 9.24318 10.3616 9.37376 10.2846C9.50433 10.2042 9.60979 10.0937 9.69014 9.95313C9.77049 9.81252 9.82741 9.64847 9.86089 9.46098C9.89772 9.27349 9.91613 9.07261 9.91613 8.85834V8.75288C9.91613 8.54196 9.89772 8.34443 9.86089 8.16029C9.82741 7.9728 9.77049 7.80708 9.69014 7.66311C9.60979 7.51915 9.50265 7.40699 9.36873 7.32664C9.23816 7.24629 9.07579 7.20611 8.8816 7.20611C8.69412 7.20611 8.53509 7.24629 8.40452 7.32664C8.27394 7.40699 8.16848 7.51915 8.08813 7.66311C8.00778 7.80708 7.94919 7.9728 7.91236 8.16029C7.87888 8.34443 7.86214 8.54196 7.86214 8.75288ZM15.0737 6.08622V7.18603H11.8496V6.08622H15.0737ZM12.5878 4.74033H14.1597V9.81754C14.1597 9.9682 14.1781 10.0837 14.2149 10.1641C14.2518 10.2444 14.312 10.3013 14.3957 10.3348C14.4794 10.3649 14.5866 10.38 14.7171 10.38C14.8109 10.38 14.8912 10.3767 14.9582 10.37C15.0251 10.3633 15.0871 10.3549 15.144 10.3448V11.4798C15.0101 11.5233 14.8678 11.5568 14.7171 11.5803C14.5665 11.607 14.4024 11.6204 14.225 11.6204C13.8868 11.6204 13.5939 11.5652 13.3461 11.4547C13.1017 11.3442 12.9142 11.1701 12.7837 10.9324C12.6531 10.6914 12.5878 10.3783 12.5878 9.99331V4.74033ZM18.7046 10.2243V7.89413C18.7046 7.73007 18.6795 7.58946 18.6293 7.47228C18.579 7.3551 18.5004 7.26303 18.3932 7.19607C18.2861 7.12911 18.1471 7.09563 17.9764 7.09563C17.8324 7.09563 17.7069 7.12074 17.5997 7.17096C17.496 7.22118 17.4156 7.29316 17.3587 7.38691C17.3051 7.48065 17.2783 7.59615 17.2783 7.73342H15.7115C15.7115 7.48902 15.7667 7.26136 15.8772 7.05043C15.9877 6.83951 16.145 6.6537 16.3493 6.49299C16.5568 6.33229 16.8046 6.20842 17.0925 6.12137C17.3805 6.03097 17.7035 5.98578 18.0618 5.98578C18.487 5.98578 18.8653 6.05776 19.1967 6.20172C19.5315 6.34234 19.796 6.55493 19.9902 6.83951C20.1844 7.12074 20.2815 7.47563 20.2815 7.90417V10.1791C20.2815 10.5072 20.2999 10.765 20.3367 10.9525C20.3769 11.1366 20.4338 11.2973 20.5075 11.4346V11.52H18.9255C18.8519 11.3626 18.7966 11.1685 18.7598 10.9374C18.723 10.7031 18.7046 10.4654 18.7046 10.2243ZM18.9004 8.20549L18.9105 9.06927H18.1321C17.958 9.06927 17.8073 9.09103 17.6801 9.13455C17.5562 9.17808 17.4558 9.23834 17.3788 9.31534C17.3018 9.389 17.2449 9.47605 17.208 9.57649C17.1746 9.67358 17.1578 9.78071 17.1578 9.89789C17.1578 10.0084 17.1846 10.1088 17.2382 10.1992C17.2917 10.2863 17.3654 10.3549 17.4591 10.4051C17.5529 10.4553 17.6617 10.4804 17.7856 10.4804C17.9898 10.4804 18.1639 10.4403 18.3078 10.3599C18.4552 10.2796 18.569 10.1825 18.6493 10.0686C18.7297 9.95146 18.7699 9.84265 18.7699 9.74221L19.1465 10.3951C19.0862 10.529 19.0126 10.6679 18.9255 10.8119C18.8385 10.9525 18.728 11.0848 18.5941 11.2086C18.4602 11.3292 18.2978 11.4279 18.107 11.5049C17.9195 11.5819 17.6935 11.6204 17.429 11.6204C17.0875 11.6204 16.7778 11.5518 16.4999 11.4145C16.2221 11.2739 15.9994 11.0814 15.832 10.837C15.668 10.5926 15.5859 10.3114 15.5859 9.99331C15.5859 9.70873 15.6378 9.45596 15.7416 9.23499C15.8454 9.01402 16.0011 8.82654 16.2087 8.67253C16.4196 8.51852 16.6841 8.40302 17.0021 8.32601C17.3202 8.24566 17.6918 8.20549 18.117 8.20549H18.9004ZM22.9632 3.80624V11.52H21.3913V3.80624H22.9632ZM31.6412 7.15087V8.41641H27.8546V7.15087H31.6412ZM28.3719 4.208V11.52H26.7347V4.208H28.3719ZM32.7711 4.208V11.52H31.139V4.208H32.7711ZM35.5583 6.08622V11.52H33.9864V6.08622H35.5583ZM33.891 4.68006C33.891 4.4524 33.9714 4.26659 34.1321 4.12262C34.2928 3.97531 34.5037 3.90166 34.7648 3.90166C35.026 3.90166 35.2369 3.97531 35.3976 4.12262C35.5617 4.26659 35.6437 4.4524 35.6437 4.68006C35.6437 4.90438 35.5617 5.09019 35.3976 5.2375C35.2369 5.38147 35.026 5.45345 34.7648 5.45345C34.5037 5.45345 34.2928 5.38147 34.1321 5.2375C33.9714 5.09019 33.891 4.90438 33.891 4.68006ZM38.2601 7.35175V11.52H36.6933V6.08622H38.1647L38.2601 7.35175ZM39.8822 6.04604L39.8571 7.50743C39.7902 7.49739 39.7031 7.48902 39.596 7.48232C39.4888 7.47228 39.3968 7.46726 39.3198 7.46726C39.1189 7.46726 38.9448 7.49237 38.7975 7.54259C38.6535 7.58946 38.533 7.65977 38.4359 7.75351C38.3422 7.84725 38.2719 7.96443 38.225 8.10505C38.1781 8.24232 38.1547 8.40134 38.1547 8.58214L37.8584 8.4365C37.8584 8.07826 37.8935 7.75016 37.9638 7.45219C38.0342 7.15422 38.1363 6.89643 38.2702 6.67881C38.4041 6.45784 38.5682 6.28709 38.7623 6.16657C38.9565 6.04604 39.1775 5.98578 39.4252 5.98578C39.5056 5.98578 39.5876 5.9908 39.6713 6.00084C39.755 6.01089 39.8253 6.02595 39.8822 6.04604ZM42.9858 11.6204C42.5539 11.6204 42.1672 11.5518 41.8257 11.4145C41.4842 11.2773 41.1946 11.0881 40.9569 10.847C40.7226 10.6026 40.5435 10.3214 40.4196 10.0034C40.2957 9.6853 40.2338 9.34548 40.2338 8.98389V8.79306C40.2338 8.38795 40.2907 8.01465 40.4045 7.67316C40.5184 7.33166 40.6841 7.03537 40.9017 6.78427C41.1227 6.52982 41.3939 6.33397 41.7153 6.1967C42.0367 6.05608 42.4033 5.98578 42.8151 5.98578C43.2001 5.98578 43.5433 6.04939 43.8446 6.17661C44.1459 6.30049 44.4003 6.4796 44.6079 6.71396C44.8155 6.94497 44.9728 7.22453 45.08 7.55263C45.1905 7.87739 45.2457 8.24232 45.2457 8.64742V9.29023H40.8665V8.28082H43.709V8.16029C43.709 7.96945 43.6738 7.80206 43.6035 7.65809C43.5366 7.51413 43.4361 7.40365 43.3022 7.32664C43.1716 7.24629 43.0059 7.20611 42.805 7.20611C42.6142 7.20611 42.4552 7.24629 42.3279 7.32664C42.2007 7.40699 42.0986 7.52083 42.0216 7.66814C41.9479 7.8121 41.8944 7.98117 41.8609 8.17536C41.8274 8.36619 41.8107 8.57209 41.8107 8.79306V8.98389C41.8107 9.19482 41.8391 9.38732 41.896 9.56142C41.953 9.73551 42.0367 9.8845 42.1471 10.0084C42.2576 10.1323 42.3915 10.2293 42.5489 10.2996C42.7063 10.37 42.8854 10.4051 43.0863 10.4051C43.334 10.4051 43.57 10.3582 43.7944 10.2645C44.0187 10.1674 44.2129 10.0167 44.3769 9.81252L45.1101 10.6512C44.9996 10.8119 44.8439 10.9676 44.6431 11.1182C44.4455 11.2655 44.2078 11.3861 43.9299 11.4798C43.6521 11.5736 43.3374 11.6204 42.9858 11.6204ZM48.9017 10.0084C48.9017 9.90794 48.8699 9.81921 48.8063 9.74221C48.746 9.66521 48.6355 9.5949 48.4748 9.53129C48.3175 9.46768 48.0948 9.40406 47.8069 9.34045C47.5357 9.28354 47.2829 9.20988 47.0486 9.11949C46.8142 9.02574 46.61 8.91359 46.4359 8.78301C46.2618 8.64909 46.1262 8.49174 46.0291 8.31095C45.932 8.12681 45.8835 7.91756 45.8835 7.6832C45.8835 7.45554 45.932 7.23959 46.0291 7.03537C46.1296 6.83114 46.2735 6.65035 46.461 6.49299C46.6519 6.33564 46.8829 6.21176 47.1541 6.12137C47.4286 6.03097 47.7399 5.98578 48.0881 5.98578C48.5669 5.98578 48.9804 6.06111 49.3286 6.21176C49.6768 6.35908 49.9446 6.56665 50.1321 6.83449C50.3196 7.09898 50.4133 7.40197 50.4133 7.74347H48.8465C48.8465 7.60285 48.8197 7.48065 48.7661 7.37686C48.7125 7.27307 48.6305 7.19272 48.52 7.13581C48.4095 7.07554 48.2639 7.04541 48.0831 7.04541C47.9425 7.04541 47.8186 7.07052 47.7115 7.12074C47.6077 7.16761 47.5257 7.2329 47.4654 7.3166C47.4085 7.4003 47.38 7.49739 47.38 7.60787C47.38 7.68488 47.3968 7.75518 47.4303 7.8188C47.4671 7.87906 47.5223 7.93597 47.596 7.98954C47.673 8.03976 47.7718 8.08496 47.8923 8.12514C48.0162 8.16531 48.1668 8.20381 48.3443 8.24064C48.7226 8.31095 49.0674 8.40971 49.3788 8.53694C49.6935 8.66416 49.9446 8.83993 50.1321 9.06424C50.3229 9.28856 50.4183 9.58486 50.4183 9.95313C50.4183 10.1942 50.3631 10.4152 50.2526 10.616C50.1455 10.8169 49.9898 10.9927 49.7856 11.1433C49.5813 11.294 49.3369 11.4112 49.0524 11.4949C48.7678 11.5786 48.4464 11.6204 48.0881 11.6204C47.5759 11.6204 47.1423 11.5284 46.7874 11.3442C46.4326 11.1601 46.1647 10.9291 45.9839 10.6512C45.8065 10.37 45.7178 10.082 45.7178 9.78741H47.1892C47.1959 9.9682 47.2411 10.1155 47.3248 10.2293C47.4118 10.3432 47.524 10.4269 47.6613 10.4804C47.7985 10.5307 47.9525 10.5558 48.1233 10.5558C48.294 10.5558 48.4363 10.5323 48.5502 10.4855C48.664 10.4386 48.751 10.375 48.8113 10.2946C48.8716 10.2109 48.9017 10.1155 48.9017 10.0084Z" fill="#03002E"/>
<path fill-rule="evenodd" clip-rule="evenodd" d="M235.862 6.80957C235.194 6.80957 234.652 7.35131 234.652 8.01957C234.652 8.68783 235.194 9.22957 235.862 9.22957C236.53 9.22957 237.072 8.68783 237.072 8.01957C237.072 7.35131 236.53 6.80957 235.862 6.80957ZM238.887 8.01957C238.887 7.35131 239.429 6.80957 240.097 6.80957C240.765 6.80957 241.307 7.35131 241.307 8.01957C241.307 8.68783 240.765 9.22957 240.097 9.22957C239.429 9.22957 238.887 8.68783 238.887 8.01957ZM243.122 8.01957C243.122 7.35131 243.664 6.80957 244.332 6.80957C245 6.80957 245.542 7.35131 245.542 8.01957C245.542 8.68783 245 9.22957 244.332 9.22957C243.664 9.22957 243.122 8.68783 243.122 8.01957Z" fill="#03002E"/>
<path d="M8.91676 29.576V44.2H5.53195V33.3927L2.19736 34.367V31.7957L8.60539 29.576H8.91676ZM16.0431 37.6815L13.3514 37.0487L14.2352 29.576H22.7826V32.2075H16.9973L16.6659 35.1102C16.8266 35.0165 17.0978 34.906 17.4794 34.7788C17.8678 34.6448 18.2963 34.5779 18.765 34.5779C19.4882 34.5779 20.1277 34.6884 20.6834 34.9093C21.2459 35.1236 21.7213 35.4417 22.1097 35.8635C22.498 36.2787 22.7893 36.7909 22.9835 37.4002C23.1844 38.0096 23.2848 38.7059 23.2848 39.4894C23.2848 40.1188 23.181 40.7281 22.9735 41.3174C22.7726 41.8999 22.4612 42.4256 22.0394 42.8943C21.6242 43.3563 21.0986 43.7246 20.4625 43.9991C19.8264 44.2669 19.0731 44.4009 18.2026 44.4009C17.5531 44.4009 16.9203 44.3004 16.3043 44.0995C15.6883 43.8987 15.1325 43.6107 14.637 43.2358C14.1482 42.8541 13.7598 42.3954 13.4719 41.8597C13.1907 41.3174 13.0534 40.7114 13.0601 40.0418H16.465C16.4851 40.3967 16.5688 40.7047 16.7161 40.9658C16.8634 41.227 17.0609 41.4312 17.3087 41.5785C17.5631 41.7191 17.8544 41.7894 18.1825 41.7894C18.5173 41.7894 18.7952 41.7225 19.0161 41.5886C19.2371 41.4546 19.4112 41.2705 19.5384 41.0361C19.6657 40.8018 19.756 40.5339 19.8096 40.2326C19.8632 39.9246 19.89 39.5999 19.89 39.2584C19.89 38.8968 19.8498 38.572 19.7694 38.2841C19.6958 37.9962 19.5753 37.7518 19.4079 37.5509C19.2405 37.3433 19.0228 37.186 18.755 37.0788C18.4939 36.9717 18.1791 36.9181 17.8109 36.9181C17.3221 36.9181 16.937 37.0018 16.6558 37.1692C16.3746 37.3366 16.1704 37.5074 16.0431 37.6815Z" fill="#03002E"/>
<path d="M31.4758 44.2V42.5798H30.005V41.809H31.4758V40.181H32.2387V41.809H33.7173V42.5798H32.2387V44.2H31.4758ZM36.6175 44.2944C36.24 44.2944 35.907 44.2236 35.6186 44.082C35.3355 43.9404 35.1153 43.7386 34.958 43.4764C34.8007 43.209 34.722 42.8918 34.722 42.5247H35.713C35.713 42.724 35.7497 42.8996 35.8231 43.0517C35.8965 43.1985 36.0014 43.3112 36.1377 43.3899C36.274 43.4685 36.434 43.5079 36.6175 43.5079C36.7957 43.5079 36.9504 43.4685 37.0815 43.3899C37.2126 43.3112 37.3148 43.1933 37.3882 43.036C37.4669 42.8734 37.5062 42.6742 37.5062 42.4382C37.5062 42.218 37.4695 42.0371 37.3961 41.8955C37.3227 41.7487 37.2205 41.6412 37.0894 41.5731C36.9583 41.4997 36.8089 41.463 36.6411 41.463C36.5152 41.463 36.3999 41.4839 36.295 41.5259C36.1901 41.5678 36.0984 41.6229 36.0197 41.691C35.9411 41.754 35.8729 41.8274 35.8152 41.9113L34.9029 41.7933L35.1231 38.8046H38.2219V39.6776H35.9568L35.8703 41.0068C35.9437 40.9544 36.0276 40.9045 36.122 40.8574C36.2164 40.8102 36.3265 40.7708 36.4523 40.7394C36.5834 40.7079 36.7328 40.6922 36.9006 40.6922C37.1995 40.6922 37.4695 40.7551 37.7107 40.881C37.9519 41.0068 38.1433 41.1982 38.2849 41.4551C38.4264 41.712 38.4972 42.0397 38.4972 42.4382C38.4972 42.8315 38.4212 43.167 38.2691 43.4449C38.1171 43.7228 37.8995 43.9352 37.6163 44.082C37.3384 44.2236 37.0055 44.2944 36.6175 44.2944ZM40.347 44.2L44.2952 38.8046H45.0582L41.0942 44.2H40.347ZM40.8661 41.5495C40.6039 41.5495 40.3759 41.5075 40.1819 41.4236C39.9879 41.3345 39.8384 41.1877 39.7335 40.9832C39.6339 40.7787 39.5841 40.4956 39.5841 40.1338C39.5841 39.7667 39.6339 39.481 39.7335 39.2765C39.8384 39.072 39.9879 38.9278 40.1819 38.8439C40.3759 38.7548 40.6039 38.7102 40.8661 38.7102C41.1335 38.7102 41.3616 38.7548 41.5504 38.8439C41.7391 38.9278 41.8833 39.072 41.9829 39.2765C42.0878 39.481 42.1402 39.7667 42.1402 40.1338C42.1402 40.4956 42.0878 40.7813 41.9829 40.9911C41.8833 41.1956 41.7391 41.3397 41.5504 41.4236C41.3616 41.5075 41.1335 41.5495 40.8661 41.5495ZM40.8661 40.9675C41.0811 40.9675 41.2227 40.8967 41.2908 40.7551C41.359 40.6135 41.3931 40.4222 41.3931 40.181V40.0787C41.3931 39.9214 41.3773 39.7851 41.3459 39.6697C41.3197 39.5491 41.2672 39.4574 41.1886 39.3945C41.1152 39.3263 41.0077 39.2922 40.8661 39.2922C40.6564 39.2922 40.5148 39.3656 40.4414 39.5124C40.3732 39.654 40.3392 39.8428 40.3392 40.0787V40.181C40.3392 40.4222 40.3732 40.6135 40.4414 40.7551C40.5148 40.8967 40.6564 40.9675 40.8661 40.9675ZM44.5155 44.2944C44.2533 44.2944 44.0252 44.2524 43.8312 44.1685C43.6425 44.0794 43.4956 43.9326 43.3908 43.7281C43.2912 43.5236 43.2413 43.2405 43.2413 42.8787C43.2413 42.5116 43.2912 42.2259 43.3908 42.0214C43.4956 41.8169 43.6425 41.6727 43.8312 41.5888C44.0252 41.4997 44.2533 41.4551 44.5155 41.4551C44.7829 41.4551 45.011 41.4997 45.1997 41.5888C45.3937 41.6727 45.5405 41.8169 45.6402 42.0214C45.7398 42.2259 45.7896 42.5116 45.7896 42.8787C45.7896 43.2405 45.7398 43.5262 45.6402 43.7359C45.5405 43.9404 45.3937 44.0846 45.1997 44.1685C45.011 44.2524 44.7829 44.2944 44.5155 44.2944ZM44.5155 43.7124C44.7304 43.7124 44.872 43.6416 44.9402 43.5C45.0083 43.3532 45.0424 43.1592 45.0424 42.918V42.8236C45.0424 42.6663 45.0267 42.53 44.9952 42.4146C44.969 42.294 44.9192 42.2023 44.8458 42.1394C44.7724 42.0712 44.6623 42.0371 44.5155 42.0371C44.3057 42.0371 44.1668 42.1105 44.0986 42.2573C44.0305 42.3989 43.9964 42.5877 43.9964 42.8236V42.918C43.9964 43.1592 44.0305 43.3532 44.0986 43.5C44.1668 43.6416 44.3057 43.7124 44.5155 43.7124Z" fill="#464454"/>
</svg>
