<svg width="262" height="142" viewBox="0 0 262 142" fill="none" xmlns="http://www.w3.org/2000/svg">
<path d="M15.9282 7.65438C15.5455 7.65438 15.2204 7.59408 14.953 7.47348C14.6856 7.35289 14.4811 7.17723 14.3395 6.94653C14.1979 6.71582 14.1272 6.42744 14.1272 6.08138V5.82183H15.0002V6.10497C15.0002 6.3619 15.0788 6.56114 15.2361 6.70271C15.3934 6.83904 15.6241 6.9072 15.9282 6.9072C16.2271 6.9072 16.4552 6.80758 16.6125 6.60833C16.7698 6.40909 16.8484 6.12332 16.8484 5.75105V2.16461H17.7293V5.73532C17.7293 6.16003 17.6585 6.51657 17.517 6.80496C17.3754 7.0881 17.1709 7.30045 16.9035 7.44202C16.6361 7.58359 16.311 7.65438 15.9282 7.65438ZM20.1697 7.65438C19.7713 7.65438 19.4488 7.54951 19.2024 7.33978C18.9559 7.1248 18.8327 6.76039 18.8327 6.24654V3.42301H19.6507V6.1207C19.6507 6.278 19.669 6.40909 19.7057 6.51395C19.7477 6.61882 19.8053 6.70271 19.8787 6.76563C19.9521 6.82855 20.0387 6.87312 20.1383 6.89934C20.2379 6.92555 20.348 6.93866 20.4686 6.93866C20.6574 6.93866 20.8278 6.89409 20.9798 6.80496C21.1371 6.71058 21.263 6.58212 21.3574 6.41957C21.4517 6.25179 21.4989 6.0604 21.4989 5.84543V3.42301H22.3169V7.56H21.6484L21.5776 6.97012H21.5225C21.4229 7.12218 21.3049 7.24802 21.1686 7.34764C21.0323 7.44727 20.8802 7.52329 20.7124 7.57573C20.5499 7.62816 20.369 7.65438 20.1697 7.65438ZM23.3729 7.56V1.8736H24.1909V7.56H23.3729Z" fill="#03002E" fill-opacity="0.6"/>
<path d="M29.5601 5.56H247.058" stroke="#B3B3B3" stroke-opacity="0.16" stroke-width="0.605"/>
<path d="M13.2938 37.189C12.911 37.189 12.5859 37.1287 12.3185 37.0081C12.0511 36.8875 11.8466 36.7118 11.705 36.4811C11.5635 36.2504 11.4927 35.962 11.4927 35.616V35.3564H12.3657V35.6396C12.3657 35.8965 12.4444 36.0957 12.6017 36.2373C12.759 36.3736 12.9897 36.4418 13.2938 36.4418C13.5926 36.4418 13.8207 36.3422 13.978 36.1429C14.1353 35.9437 14.214 35.6579 14.214 35.2856V31.6992H15.0949V35.2699C15.0949 35.6946 15.0241 36.0512 14.8825 36.3395C14.7409 36.6227 14.5364 36.835 14.269 36.9766C14.0016 37.1182 13.6765 37.189 13.2938 37.189ZM17.5353 37.189C17.1368 37.189 16.8143 37.0841 16.5679 36.8744C16.3214 36.6594 16.1982 36.295 16.1982 35.7811V32.9576H17.0162V35.6553C17.0162 35.8126 17.0345 35.9437 17.0712 36.0485C17.1132 36.1534 17.1709 36.2373 17.2443 36.3002C17.3177 36.3631 17.4042 36.4077 17.5038 36.4339C17.6034 36.4601 17.7136 36.4733 17.8341 36.4733C18.0229 36.4733 18.1933 36.4287 18.3454 36.3395C18.5027 36.2452 18.6285 36.1167 18.7229 35.9542C18.8173 35.7864 18.8645 35.595 18.8645 35.38V32.9576H19.6824V37.0946H19.0139L18.9431 36.5047H18.8881C18.7884 36.6568 18.6705 36.7826 18.5341 36.8822C18.3978 36.9819 18.2458 37.0579 18.078 37.1103C17.9154 37.1628 17.7345 37.189 17.5353 37.189ZM20.7384 37.0946V32.9576H21.4148L21.4856 33.5475H21.5407C21.6403 33.3954 21.7583 33.2696 21.8946 33.17C22.0309 33.0703 22.1803 32.9943 22.3429 32.9419C22.5107 32.8894 22.6942 32.8632 22.8934 32.8632C23.1556 32.8632 23.3863 32.9104 23.5856 33.0048C23.7848 33.0939 23.9395 33.2407 24.0496 33.4452C24.1649 33.6497 24.2226 33.925 24.2226 34.2711V37.0946H23.4047V34.3969C23.4047 34.2396 23.3837 34.1085 23.3417 34.0036C23.305 33.8988 23.25 33.8149 23.1766 33.752C23.1032 33.689 23.0167 33.6445 22.917 33.6183C22.8174 33.592 22.7073 33.5789 22.5867 33.5789C22.3979 33.5789 22.2249 33.6261 22.0676 33.7205C21.9156 33.8096 21.7923 33.9355 21.698 34.098C21.6036 34.2606 21.5564 34.4519 21.5564 34.6722V37.0946H20.7384Z" fill="#03002E" fill-opacity="0.6"/>
<path d="M29.5601 35.0946H247.058" stroke="#B3B3B3" stroke-opacity="0.16" stroke-width="0.605"/>
<path d="M12.025 66.6292L14.1407 61.2338H15.2654L17.3889 66.6292H16.4451L15.9654 65.3787H13.4092L12.9295 66.6292H12.025ZM13.6924 64.6315H15.6743L15.0687 63.0506C15.053 63.0034 15.0294 62.9379 14.998 62.854C14.9665 62.7701 14.9324 62.6783 14.8957 62.5787C14.8643 62.4791 14.8302 62.3795 14.7935 62.2799C14.762 62.175 14.7332 62.0806 14.707 61.9967H14.6598C14.6283 62.0963 14.589 62.2143 14.5418 62.3506C14.4946 62.487 14.4474 62.618 14.4002 62.7439C14.3583 62.8697 14.3216 62.972 14.2901 63.0506L13.6924 64.6315ZM17.9734 67.9898V62.4922H18.6419L18.7127 63.0585H18.7677C18.9093 62.8383 19.0902 62.6731 19.3104 62.563C19.5307 62.4529 19.7771 62.3978 20.0497 62.3978C20.3906 62.3978 20.6816 62.4739 20.9228 62.6259C21.1692 62.778 21.358 63.0139 21.489 63.3338C21.6201 63.6536 21.6857 64.0678 21.6857 64.5764C21.6857 65.0693 21.6175 65.4757 21.4812 65.7955C21.3501 66.1101 21.164 66.3434 20.9228 66.4955C20.6816 66.6475 20.4037 66.7236 20.0891 66.7236C19.9056 66.7236 19.7351 66.7026 19.5778 66.6607C19.4205 66.6187 19.279 66.5532 19.1531 66.464C19.0325 66.3749 18.9277 66.2622 18.8385 66.1258H18.7913V67.9898H17.9734ZM19.8059 66.0157C20.0524 66.0157 20.2516 65.9685 20.4037 65.8742C20.5557 65.7745 20.6658 65.6225 20.734 65.418C20.8074 65.2135 20.8441 64.954 20.8441 64.6394V64.4978C20.8441 64.1675 20.8074 63.9 20.734 63.6956C20.6606 63.4911 20.5479 63.3416 20.3958 63.2472C20.249 63.1529 20.0576 63.1057 19.8217 63.1057C19.5805 63.1057 19.3838 63.1607 19.2318 63.2708C19.0797 63.3757 18.967 63.533 18.8936 63.7427C18.8254 63.9525 18.7913 64.2068 18.7913 64.5056V64.6158C18.7913 64.8622 18.8149 65.0745 18.8621 65.2528C18.9093 65.4311 18.9775 65.5779 19.0666 65.6933C19.1558 65.8034 19.2632 65.8846 19.3891 65.9371C19.5149 65.9895 19.6539 66.0157 19.8059 66.0157ZM22.528 66.6292V62.4922H23.2044L23.2752 63.1607H23.3224C23.3696 63.0296 23.4299 62.9064 23.5033 62.7911C23.5819 62.6757 23.6816 62.5813 23.8021 62.5079C23.928 62.4345 24.08 62.3978 24.2583 62.3978C24.3422 62.3978 24.4156 62.4057 24.4785 62.4214C24.5467 62.4372 24.5991 62.4503 24.6358 62.4607V63.2315H24.3606C24.1928 63.2315 24.0433 63.2577 23.9123 63.3102C23.7864 63.3626 23.6789 63.4412 23.5898 63.5461C23.5059 63.6457 23.443 63.769 23.401 63.9158C23.3643 64.0626 23.346 64.2277 23.346 64.4113V66.6292H22.528Z" fill="#03002E" fill-opacity="0.6"/>
<path d="M29.5601 64.6292H247.058" stroke="#B3B3B3" stroke-opacity="0.16" stroke-width="0.605"/>
<path d="M11.8622 96.1638V90.7684H15.716V91.5234H12.743V93.12H15.4329V93.8672H12.743V96.1638H11.8622ZM18.052 96.2582C17.6273 96.2582 17.2707 96.1821 16.9823 96.0301C16.6992 95.8728 16.4842 95.6342 16.3374 95.3144C16.1906 94.9945 16.1172 94.5882 16.1172 94.0953C16.1172 93.5972 16.1906 93.1908 16.3374 92.8762C16.4842 92.5564 16.7018 92.3204 16.9902 92.1684C17.2786 92.0111 17.6377 91.9324 18.0677 91.9324C18.461 91.9324 18.7887 92.0084 19.0508 92.1605C19.3182 92.3073 19.5201 92.5328 19.6564 92.8369C19.7928 93.141 19.8609 93.5238 19.8609 93.9852V94.2998H16.9587C16.9692 94.5934 17.0138 94.8398 17.0924 95.0391C17.1711 95.2331 17.2891 95.3773 17.4464 95.4717C17.6089 95.5608 17.8134 95.6054 18.0598 95.6054C18.2119 95.6054 18.3482 95.587 18.4688 95.5503C18.5894 95.5084 18.6917 95.4507 18.7756 95.3773C18.8594 95.2986 18.925 95.2069 18.9722 95.102C19.0194 94.9919 19.043 94.8687 19.043 94.7324H19.8452C19.8452 94.9788 19.8032 95.1964 19.7194 95.3852C19.6355 95.5739 19.5122 95.7338 19.3497 95.8649C19.1924 95.9908 19.0036 96.0878 18.7834 96.1559C18.5632 96.2241 18.3194 96.2582 18.052 96.2582ZM16.9745 93.702H19.0036C19.0036 93.4976 18.98 93.3271 18.9329 93.1908C18.8909 93.0492 18.828 92.9339 18.7441 92.8448C18.6602 92.7556 18.5606 92.6927 18.4452 92.656C18.3299 92.6141 18.1988 92.5931 18.052 92.5931C17.8318 92.5931 17.643 92.6324 17.4857 92.7111C17.3336 92.7897 17.2157 92.9129 17.1318 93.0807C17.0479 93.2433 16.9954 93.4504 16.9745 93.702ZM22.7687 96.2582C22.496 96.2582 22.2496 96.2031 22.0294 96.093C21.8092 95.9829 21.6283 95.8177 21.4867 95.5975H21.4316L21.3609 96.1638H20.6923V90.4774H21.5103V92.5302H21.5575C21.6466 92.3938 21.7515 92.2811 21.8721 92.192C21.9979 92.1028 22.1395 92.0373 22.2968 91.9953C22.4541 91.9534 22.6245 91.9324 22.808 91.9324C23.1226 91.9324 23.4005 92.0084 23.6417 92.1605C23.8829 92.3126 24.069 92.5459 24.2001 92.8605C24.3365 93.1751 24.4046 93.5814 24.4046 94.0796C24.4046 94.5882 24.3391 95.0024 24.208 95.3222C24.0769 95.6421 23.8881 95.878 23.6417 96.0301C23.4005 96.1821 23.1095 96.2582 22.7687 96.2582ZM22.5406 95.5503C22.7766 95.5503 22.9679 95.5031 23.1148 95.4087C23.2668 95.3144 23.3795 95.1676 23.453 94.9683C23.5264 94.7638 23.5631 94.499 23.5631 94.1739V94.0324C23.5631 93.7073 23.5264 93.4425 23.453 93.238C23.3848 93.0335 23.2747 92.8841 23.1226 92.7897C22.9706 92.6901 22.7713 92.6403 22.5249 92.6403C22.3728 92.6403 22.2339 92.6665 22.108 92.7189C21.9822 92.7714 21.8747 92.8552 21.7856 92.9706C21.6964 93.0807 21.6283 93.2249 21.5811 93.4032C21.5339 93.5814 21.5103 93.7964 21.5103 94.0481V94.1582C21.5103 94.4571 21.5444 94.7114 21.6125 94.9211C21.6859 95.1256 21.7987 95.2829 21.9507 95.393C22.1028 95.4979 22.2994 95.5503 22.5406 95.5503Z" fill="#03002E" fill-opacity="0.6"/>
<path d="M29.5601 94.1638H247.058" stroke="#B3B3B3" stroke-opacity="0.16" stroke-width="0.605"/>
<path d="M2.25518 125.698L4.37087 120.303H5.49556L7.61911 125.698H6.67531L6.19555 124.448H3.63942L3.15966 125.698H2.25518ZM3.92256 123.701H5.90454L5.29894 122.12C5.28321 122.073 5.25961 122.007 5.22815 121.923C5.19669 121.839 5.16261 121.748 5.12591 121.648C5.09445 121.548 5.06037 121.449 5.02366 121.349C4.9922 121.244 4.96336 121.15 4.93715 121.066H4.88996C4.8585 121.166 4.81917 121.284 4.77198 121.42C4.72479 121.556 4.6776 121.687 4.63041 121.813C4.58847 121.939 4.55176 122.041 4.5203 122.12L3.92256 123.701ZM8.20358 127.059V121.561H8.8721L8.94289 122.128H8.99794C9.13951 121.907 9.32041 121.742 9.54063 121.632C9.76085 121.522 10.0073 121.467 10.2799 121.467C10.6208 121.467 10.9118 121.543 11.153 121.695C11.3994 121.847 11.5882 122.083 11.7192 122.403C11.8503 122.723 11.9159 123.137 11.9159 123.646C11.9159 124.138 11.8477 124.545 11.7114 124.865C11.5803 125.179 11.3941 125.413 11.153 125.565C10.9118 125.717 10.6339 125.793 10.3193 125.793C10.1357 125.793 9.96534 125.772 9.80804 125.73C9.65074 125.688 9.50917 125.622 9.38333 125.533C9.26273 125.444 9.15787 125.331 9.06873 125.195H9.02154V127.059H8.20358ZM10.0361 125.085C10.2826 125.085 10.4818 125.038 10.6339 124.943C10.7859 124.844 10.896 124.692 10.9642 124.487C11.0376 124.283 11.0743 124.023 11.0743 123.709V123.567C11.0743 123.237 11.0376 122.969 10.9642 122.765C10.8908 122.56 10.7781 122.411 10.626 122.316C10.4792 122.222 10.2878 122.175 10.0519 122.175C9.81066 122.175 9.61404 122.23 9.46198 122.34C9.30992 122.445 9.19719 122.602 9.12378 122.812C9.05562 123.022 9.02154 123.276 9.02154 123.575V123.685C9.02154 123.931 9.04513 124.144 9.09232 124.322C9.13951 124.5 9.20768 124.647 9.29681 124.762C9.38595 124.873 9.49344 124.954 9.61928 125.006C9.74512 125.059 9.88407 125.085 10.0361 125.085ZM12.7582 127.059V121.561H13.4267L13.4975 122.128H13.5526C13.6941 121.907 13.875 121.742 14.0953 121.632C14.3155 121.522 14.5619 121.467 14.8346 121.467C15.1754 121.467 15.4664 121.543 15.7076 121.695C15.954 121.847 16.1428 122.083 16.2739 122.403C16.405 122.723 16.4705 123.137 16.4705 123.646C16.4705 124.138 16.4023 124.545 16.266 124.865C16.1349 125.179 15.9488 125.413 15.7076 125.565C15.4664 125.717 15.1885 125.793 14.8739 125.793C14.6904 125.793 14.52 125.772 14.3627 125.73C14.2054 125.688 14.0638 125.622 13.938 125.533C13.8174 125.444 13.7125 125.331 13.6234 125.195H13.5762V127.059H12.7582ZM14.5908 125.085C14.8372 125.085 15.0364 125.038 15.1885 124.943C15.3406 124.844 15.4507 124.692 15.5188 124.487C15.5922 124.283 15.6289 124.023 15.6289 123.709V123.567C15.6289 123.237 15.5922 122.969 15.5188 122.765C15.4454 122.56 15.3327 122.411 15.1806 122.316C15.0338 122.222 14.8424 122.175 14.6065 122.175C14.3653 122.175 14.1687 122.23 14.0166 122.34C13.8646 122.445 13.7518 122.602 13.6784 122.812C13.6103 123.022 13.5762 123.276 13.5762 123.575V123.685C13.5762 123.931 13.5998 124.144 13.647 124.322C13.6941 124.5 13.7623 124.647 13.8514 124.762C13.9406 124.873 14.0481 124.954 14.1739 125.006C14.2998 125.059 14.4387 125.085 14.5908 125.085ZM17.478 125.698V124.786H18.351V125.698H17.478ZM19.8926 125.698V124.786H20.7656V125.698H19.8926ZM22.2993 125.698V124.786H23.1801V125.698H22.2993Z" fill="#03002E" fill-opacity="0.6"/>
<path d="M29.5601 123.538H247.058" stroke="#B3B3B3" stroke-opacity="0.16" stroke-width="0.605"/>
<path opacity="0.6" d="M37.1928 81.1603L29.5527 105.553V128.378H246.748V41.522L241.836 25.6666L235.288 36.0336L229.558 39.6925L222.463 43.6563L217.825 41.522H214.55L203.909 33.5943L193.54 47.0103L184.809 45.1809L179.898 48.8398H174.713L171.166 56.4626L166.527 54.3282L159.706 65.9148L155.067 59.5117L149.337 54.3282L142.243 39.6925L129.964 51.2791L115.503 36.0336L100.769 75.6719L92.3101 59.5117H88.2172L83.5786 56.4626L78.6672 59.5117L73.7557 56.4626L64.7514 83.5996H59.2943L57.6571 88.1732L54.11 90.9174H49.7442L43.7414 79.6357L40.4671 81.1603H37.1928Z" fill="url(#paint0_linear_6_2907)"/>
<path d="M29.5527 105.553L37.1928 81.1603H40.4671L43.7413 79.6358L49.7442 90.9174H54.11L57.6571 88.1732L59.2943 83.5996H64.7514L73.7557 56.4626L78.6672 59.5117L83.5786 56.4626L88.2172 59.5117H92.3101L100.769 75.6719L115.503 36.0336L129.964 51.2791L142.243 39.6925L149.337 54.3282L155.067 59.5117L159.706 65.9148L166.527 54.3282L171.166 56.4626L174.713 48.8398H179.897L184.809 45.1809L193.54 47.0103L203.909 33.5943L214.55 41.522H217.825L222.463 43.6563L229.558 39.6925L235.288 36.0336L241.836 25.6666L246.748 41.522" stroke="#5F58FB" stroke-width="0.605" stroke-linecap="round"/>
<path d="M31.6291 140.313C31.2463 140.313 30.9212 140.252 30.6538 140.132C30.3864 140.011 30.1819 139.835 30.0404 139.605C29.8988 139.374 29.828 139.086 29.828 138.74V138.48H30.701V138.763C30.701 139.02 30.7797 139.219 30.937 139.361C31.0943 139.497 31.325 139.565 31.6291 139.565C31.928 139.565 32.156 139.466 32.3133 139.267C32.4706 139.067 32.5493 138.781 32.5493 138.409V134.823H33.4302V138.393C33.4302 138.818 33.3594 139.175 33.2178 139.463C33.0763 139.746 32.8718 139.959 32.6044 140.1C32.3369 140.242 32.0119 140.313 31.6291 140.313ZM35.6189 140.313C35.4878 140.313 35.3463 140.297 35.1942 140.265C35.0422 140.234 34.898 140.176 34.7616 140.092C34.6306 140.008 34.5231 139.893 34.4392 139.746C34.3553 139.594 34.3133 139.398 34.3133 139.156C34.3133 138.873 34.3789 138.64 34.51 138.456C34.641 138.273 34.8246 138.129 35.0605 138.024C35.2965 137.919 35.577 137.846 35.9021 137.804C36.2324 137.762 36.5916 137.741 36.9796 137.741V137.332C36.9796 137.195 36.956 137.075 36.9088 136.97C36.8668 136.865 36.7856 136.784 36.665 136.726C36.5496 136.668 36.3818 136.64 36.1616 136.64C35.9414 136.64 35.7684 136.668 35.6425 136.726C35.5219 136.779 35.4354 136.847 35.383 136.931C35.3358 137.009 35.3122 137.096 35.3122 137.19V137.308H34.5257C34.5204 137.282 34.5178 137.256 34.5178 137.229C34.5178 137.203 34.5178 137.172 34.5178 137.135C34.5178 136.889 34.586 136.682 34.7223 136.514C34.8639 136.341 35.0605 136.21 35.3122 136.121C35.5639 136.031 35.8549 135.987 36.1852 135.987C36.5417 135.987 36.838 136.039 37.0739 136.144C37.3151 136.244 37.496 136.388 37.6166 136.577C37.7372 136.765 37.7975 136.994 37.7975 137.261V139.361C37.7975 139.461 37.8211 139.531 37.8683 139.573C37.9207 139.615 37.981 139.636 38.0492 139.636H38.3323V140.187C38.2694 140.213 38.1908 140.239 38.0964 140.265C38.002 140.292 37.8919 140.305 37.7661 140.305C37.6245 140.305 37.5039 140.278 37.4043 140.226C37.3099 140.179 37.2312 140.111 37.1683 140.022C37.1107 139.927 37.0713 139.822 37.0504 139.707H37.0032C36.9088 139.828 36.7934 139.935 36.6571 140.029C36.526 140.119 36.374 140.187 36.2009 140.234C36.0279 140.286 35.8339 140.313 35.6189 140.313ZM35.847 139.636C36.0096 139.636 36.159 139.613 36.2953 139.565C36.4369 139.513 36.5575 139.442 36.6571 139.353C36.7567 139.259 36.8354 139.149 36.8931 139.023C36.9507 138.892 36.9796 138.75 36.9796 138.598V138.323C36.6178 138.323 36.3006 138.344 36.0279 138.386C35.7552 138.428 35.5429 138.506 35.3908 138.622C35.2388 138.732 35.1628 138.886 35.1628 139.086C35.1628 139.206 35.189 139.308 35.2414 139.392C35.2938 139.471 35.3725 139.531 35.4774 139.573C35.5822 139.615 35.7054 139.636 35.847 139.636ZM38.8971 140.218V136.081H39.5735L39.6443 136.671H39.6993C39.7989 136.519 39.9169 136.393 40.0532 136.294C40.1896 136.194 40.339 136.118 40.5016 136.065C40.6693 136.013 40.8529 135.987 41.0521 135.987C41.3143 135.987 41.545 136.034 41.7442 136.128C41.9435 136.218 42.0981 136.364 42.2083 136.569C42.3236 136.773 42.3813 137.049 42.3813 137.395V140.218H41.5633V137.52C41.5633 137.363 41.5424 137.232 41.5004 137.127C41.4637 137.022 41.4086 136.938 41.3352 136.876C41.2618 136.813 41.1753 136.768 41.0757 136.742C40.9761 136.716 40.866 136.703 40.7454 136.703C40.5566 136.703 40.3836 136.75 40.2263 136.844C40.0742 136.933 39.951 137.059 39.8566 137.222C39.7622 137.384 39.7151 137.576 39.7151 137.796V140.218H38.8971Z" fill="#03002E" fill-opacity="0.6"/>
<path d="M188.257 140.218V134.823H189.633L190.679 138.095C190.711 138.189 190.742 138.296 190.774 138.417C190.805 138.538 190.834 138.653 190.86 138.763C190.892 138.873 190.915 138.97 190.931 139.054H190.994C191.005 138.976 191.023 138.881 191.049 138.771C191.075 138.661 191.102 138.546 191.128 138.425C191.159 138.304 191.191 138.192 191.222 138.087L192.276 134.823H193.629V140.218H192.756V137.261C192.756 137.062 192.758 136.855 192.764 136.64C192.769 136.425 192.774 136.233 192.779 136.065C192.785 135.898 192.787 135.79 192.787 135.743H192.724C192.714 135.801 192.688 135.9 192.646 136.042C192.609 136.178 192.57 136.325 192.528 136.482C192.486 136.64 192.446 136.776 192.41 136.891L191.317 140.218H190.538L189.445 136.899C189.413 136.8 189.379 136.682 189.342 136.545C189.306 136.409 189.269 136.27 189.232 136.128C189.196 135.987 189.164 135.858 189.138 135.743H189.075C189.08 135.869 189.083 136.024 189.083 136.207C189.088 136.391 189.093 136.577 189.099 136.765C189.104 136.949 189.106 137.114 189.106 137.261V140.218H188.257ZM195.844 140.313C195.713 140.313 195.572 140.297 195.42 140.265C195.268 140.234 195.123 140.176 194.987 140.092C194.856 140.008 194.749 139.893 194.665 139.746C194.581 139.594 194.539 139.398 194.539 139.156C194.539 138.873 194.604 138.64 194.735 138.456C194.867 138.273 195.05 138.129 195.286 138.024C195.522 137.919 195.802 137.846 196.128 137.804C196.458 137.762 196.817 137.741 197.205 137.741V137.332C197.205 137.195 197.181 137.075 197.134 136.97C197.092 136.865 197.011 136.784 196.89 136.726C196.775 136.668 196.607 136.64 196.387 136.64C196.167 136.64 195.994 136.668 195.868 136.726C195.747 136.779 195.661 136.847 195.608 136.931C195.561 137.009 195.538 137.096 195.538 137.19V137.308H194.751C194.746 137.282 194.743 137.256 194.743 137.229C194.743 137.203 194.743 137.172 194.743 137.135C194.743 136.889 194.811 136.682 194.948 136.514C195.089 136.341 195.286 136.21 195.538 136.121C195.789 136.031 196.08 135.987 196.411 135.987C196.767 135.987 197.064 136.039 197.299 136.144C197.541 136.244 197.722 136.388 197.842 136.577C197.963 136.765 198.023 136.994 198.023 137.261V139.361C198.023 139.461 198.047 139.531 198.094 139.573C198.146 139.615 198.207 139.636 198.275 139.636H198.558V140.187C198.495 140.213 198.416 140.239 198.322 140.265C198.228 140.292 198.117 140.305 197.992 140.305C197.85 140.305 197.729 140.278 197.63 140.226C197.535 140.179 197.457 140.111 197.394 140.022C197.336 139.927 197.297 139.822 197.276 139.707H197.229C197.134 139.828 197.019 139.935 196.883 140.029C196.752 140.119 196.599 140.187 196.426 140.234C196.253 140.286 196.059 140.313 195.844 140.313ZM196.073 139.636C196.235 139.636 196.384 139.613 196.521 139.565C196.662 139.513 196.783 139.442 196.883 139.353C196.982 139.259 197.061 139.149 197.119 139.023C197.176 138.892 197.205 138.75 197.205 138.598V138.323C196.843 138.323 196.526 138.344 196.253 138.386C195.981 138.428 195.768 138.506 195.616 138.622C195.464 138.732 195.388 138.886 195.388 139.086C195.388 139.206 195.414 139.308 195.467 139.392C195.519 139.471 195.598 139.531 195.703 139.573C195.808 139.615 195.931 139.636 196.073 139.636ZM199.123 140.218V136.081H199.799L199.87 136.75H199.917C199.964 136.619 200.024 136.495 200.098 136.38C200.177 136.265 200.276 136.17 200.397 136.097C200.523 136.024 200.675 135.987 200.853 135.987C200.937 135.987 201.01 135.995 201.073 136.01C201.141 136.026 201.194 136.039 201.23 136.05V136.82H200.955C200.787 136.82 200.638 136.847 200.507 136.899C200.381 136.952 200.274 137.03 200.184 137.135C200.1 137.235 200.038 137.358 199.996 137.505C199.959 137.652 199.941 137.817 199.941 138V140.218H199.123Z" fill="#03002E" fill-opacity="0.6"/>
<defs>
<linearGradient id="paint0_linear_6_2907" x1="138.15" y1="25.4841" x2="138.15" y2="128.378" gradientUnits="userSpaceOnUse">
<stop stop-color="#6E91EF"/>
<stop offset="1" stop-color="white" stop-opacity="0"/>
</linearGradient>
</defs>
</svg>
