<svg width="82" height="24" viewBox="0 0 82 24" fill="none" xmlns="http://www.w3.org/2000/svg">
<path d="M8.92 23.224C7.36267 23.224 5.95467 22.9573 4.696 22.424C3.45867 21.8907 2.47733 21.1227 1.752 20.12C1.02667 19.1173 0.653333 17.9333 0.632 16.568H5.432C5.496 17.4853 5.816 18.2107 6.392 18.744C6.98933 19.2773 7.8 19.544 8.824 19.544C9.86933 19.544 10.6907 19.2987 11.288 18.808C11.8853 18.296 12.184 17.6347 12.184 16.824C12.184 16.1627 11.9813 15.6187 11.576 15.192C11.1707 14.7653 10.6587 14.4347 10.04 14.2C9.44267 13.944 8.61067 13.6667 7.544 13.368C6.09333 12.9413 4.90933 12.5253 3.992 12.12C3.096 11.6933 2.31733 11.064 1.656 10.232C1.016 9.37867 0.696 8.248 0.696 6.84C0.696 5.51733 1.02667 4.36533 1.688 3.384C2.34933 2.40267 3.27733 1.656 4.472 1.144C5.66667 0.610666 7.032 0.344 8.568 0.344C10.872 0.344 12.7387 0.909333 14.168 2.04C15.6187 3.14933 16.4187 4.70667 16.568 6.712H11.64C11.5973 5.944 11.2667 5.31467 10.648 4.824C10.0507 4.312 9.25067 4.056 8.248 4.056C7.37333 4.056 6.66933 4.28 6.136 4.728C5.624 5.176 5.368 5.82667 5.368 6.68C5.368 7.27733 5.56 7.77867 5.944 8.184C6.34933 8.568 6.84 8.888 7.416 9.144C8.01333 9.37867 8.84533 9.656 9.912 9.976C11.3627 10.4027 12.5467 10.8293 13.464 11.256C14.3813 11.6827 15.1707 12.3227 15.832 13.176C16.4933 14.0293 16.824 15.1493 16.824 16.536C16.824 17.7307 16.5147 18.84 15.896 19.864C15.2773 20.888 14.3707 21.7093 13.176 22.328C11.9813 22.9253 10.5627 23.224 8.92 23.224ZM28.58 23.288C26.8733 23.288 25.3373 22.9147 23.972 22.168C22.6067 21.4 21.5293 20.3227 20.74 18.936C19.972 17.5493 19.588 15.9493 19.588 14.136C19.588 12.3227 19.9827 10.7227 20.772 9.336C21.5827 7.94933 22.6813 6.88267 24.068 6.136C25.4547 5.368 27.0013 4.984 28.708 4.984C30.4147 4.984 31.9613 5.368 33.348 6.136C34.7347 6.88267 35.8227 7.94933 36.612 9.336C37.4227 10.7227 37.828 12.3227 37.828 14.136C37.828 15.9493 37.412 17.5493 36.58 18.936C35.7693 20.3227 34.66 21.4 33.252 22.168C31.8653 22.9147 30.308 23.288 28.58 23.288ZM28.58 19.384C29.3907 19.384 30.148 19.192 30.852 18.808C31.5773 18.4027 32.1533 17.8053 32.58 17.016C33.0067 16.2267 33.22 15.2667 33.22 14.136C33.22 12.4507 32.772 11.16 31.876 10.264C31.0013 9.34667 29.924 8.888 28.644 8.888C27.364 8.888 26.2867 9.34667 25.412 10.264C24.5587 11.16 24.132 12.4507 24.132 14.136C24.132 15.8213 24.548 17.1227 25.38 18.04C26.2333 18.936 27.3 19.384 28.58 19.384Z" fill="url(#paint0_linear_6_2200)"/>
<path d="M48.9223 0.664C51.2689 0.664 53.3276 1.12267 55.0983 2.04C56.8903 2.95733 58.2663 4.26933 59.2263 5.976C60.2076 7.66133 60.6983 9.624 60.6983 11.864C60.6983 14.104 60.2076 16.0667 59.2263 17.752C58.2663 19.416 56.8903 20.7067 55.0983 21.624C53.3276 22.5413 51.2689 23 48.9223 23H41.1143V0.664H48.9223ZM48.7623 19.192C51.1089 19.192 52.9223 18.552 54.2023 17.272C55.4823 15.992 56.1223 14.1893 56.1223 11.864C56.1223 9.53867 55.4823 7.72533 54.2023 6.424C52.9223 5.10133 51.1089 4.44 48.7623 4.44H45.5943V19.192H48.7623ZM71.9238 23.288C70.2171 23.288 68.6811 22.9147 67.3158 22.168C65.9504 21.4 64.8731 20.3227 64.0838 18.936C63.3158 17.5493 62.9318 15.9493 62.9318 14.136C62.9318 12.3227 63.3264 10.7227 64.1158 9.336C64.9264 7.94933 66.0251 6.88267 67.4118 6.136C68.7984 5.368 70.3451 4.984 72.0518 4.984C73.7584 4.984 75.3051 5.368 76.6918 6.136C78.0784 6.88267 79.1664 7.94933 79.9558 9.336C80.7664 10.7227 81.1718 12.3227 81.1718 14.136C81.1718 15.9493 80.7558 17.5493 79.9237 18.936C79.1131 20.3227 78.0038 21.4 76.5958 22.168C75.2091 22.9147 73.6518 23.288 71.9238 23.288ZM71.9238 19.384C72.7344 19.384 73.4918 19.192 74.1958 18.808C74.9211 18.4027 75.4971 17.8053 75.9238 17.016C76.3504 16.2267 76.5638 15.2667 76.5638 14.136C76.5638 12.4507 76.1158 11.16 75.2198 10.264C74.3451 9.34667 73.2678 8.888 71.9878 8.888C70.7078 8.888 69.6304 9.34667 68.7558 10.264C67.9024 11.16 67.4758 12.4507 67.4758 14.136C67.4758 15.8213 67.8918 17.1227 68.7238 18.04C69.5771 18.936 70.6438 19.384 71.9238 19.384Z" fill="url(#paint1_linear_6_2200)"/>
<defs>
<linearGradient id="paint0_linear_6_2200" x1="34.5" y1="2.5" x2="-11.9085" y2="15.1733" gradientUnits="userSpaceOnUse">
<stop stop-color="#8840FB"/>
<stop offset="0.677667" stop-color="#2B74FB"/>
</linearGradient>
<linearGradient id="paint1_linear_6_2200" x1="90.875" y1="-6" x2="0.650925" y2="23.8903" gradientUnits="userSpaceOnUse">
<stop offset="0.193344"/>
<stop offset="0.374172" stop-color="#3A3737"/>
<stop offset="0.555" stop-color="#615A5A"/>
</linearGradient>
</defs>
</svg>
