<svg width="21" height="21" viewBox="0 0 21 21" fill="none" xmlns="http://www.w3.org/2000/svg">
<g clip-path="url(#clip0_365_1087)">
<path d="M20.4432 10.0767C20.4432 10.3932 20.3175 10.6966 20.0937 10.9205C19.8699 11.1442 19.5665 11.2699 19.25 11.2699H11.6932V18.8267C11.6932 19.1432 11.5675 19.4466 11.3437 19.6705C11.1199 19.8942 10.8165 20.0199 10.5 20.0199C10.1836 20.0199 9.8801 19.8942 9.65628 19.6705C9.43253 19.4466 9.30682 19.1432 9.30682 18.8267V11.2699H1.75001C1.43355 11.2699 1.13006 11.1442 0.906298 10.9205C0.682534 10.6966 0.556824 10.3932 0.556824 10.0767C0.556824 9.76027 0.682534 9.45682 0.906298 9.233C1.13006 9.00925 1.43355 8.88354 1.75001 8.88354H9.30682V1.32673C9.30682 1.01027 9.43253 0.706785 9.65628 0.483019C9.8801 0.259255 10.1836 0.133545 10.5 0.133545C10.8165 0.133545 11.1199 0.259255 11.3437 0.483019C11.5675 0.706785 11.6932 1.01027 11.6932 1.32673V8.88354H19.25C19.5665 8.88354 19.8699 9.00925 20.0937 9.233C20.3175 9.45682 20.4432 9.76027 20.4432 10.0767Z" fill="#060606"/>
</g>
<defs>
<clipPath id="clip0_365_1087">
<rect width="20" height="20" fill="white" transform="translate(0.5 0.0766602)"/>
</clipPath>
</defs>
</svg>
