<svg width="29" height="23" viewBox="0 0 29 23" fill="none" xmlns="http://www.w3.org/2000/svg">
<path d="M8.51308 22.2791C7.38566 22.3998 6.37619 22.2908 5.48466 21.952C4.58802 21.5656 3.84047 21.0184 3.24201 20.3105C2.69053 19.5976 2.21767 18.7315 1.82344 17.7123C1.42921 16.6931 1.1708 15.6111 1.0482 14.4662C0.797906 12.1289 1.15013 9.87177 2.10487 7.69488C3.10659 5.51296 4.81193 3.68991 7.22091 2.22575L7.993 3.44576C6.74409 4.20672 5.66675 5.2388 4.76099 6.54199C3.8971 7.79245 3.44016 9.0717 3.39018 10.3797C3.21559 11.4116 3.29682 12.392 3.63386 13.3209C4.54473 12.0654 5.86921 11.3446 7.6073 11.1585C9.20447 10.9874 10.5734 11.3474 11.7142 12.2385C12.8498 13.0818 13.5095 14.3621 13.6934 16.0794C13.8722 17.7489 13.4776 19.1662 12.5095 20.3313C11.5363 21.4487 10.2042 22.098 8.51308 22.2791ZM23.0285 20.7247C21.9011 20.8454 20.8916 20.7364 20.0001 20.3976C19.1035 20.0112 18.3559 19.464 17.7574 18.7561C17.206 18.0432 16.7331 17.1772 16.3389 16.1579C15.9446 15.1387 15.6862 14.0567 15.5636 12.9118C15.3133 10.5745 15.6656 8.31738 16.6203 6.14049C17.622 3.95856 19.3274 2.13552 21.7363 0.671355L22.5084 1.89137C21.2595 2.65233 20.1822 3.68441 19.2764 4.9876C18.4125 6.23805 17.9556 7.5173 17.9056 8.82535C17.731 9.85725 17.8123 10.8376 18.1493 11.7665C19.0602 10.511 20.3846 9.7902 22.1227 9.60407C23.7199 9.43304 25.0889 9.79304 26.2296 10.6841C27.3652 11.5274 28.025 12.8077 28.2089 14.525C28.3876 16.1945 27.993 17.6118 27.0249 18.7769C26.0518 19.8943 24.7196 20.5436 23.0285 20.7247Z" fill="black"/>
</svg>
