<svg width="25" height="228" viewBox="0 0 25 228" fill="none" xmlns="http://www.w3.org/2000/svg">
<path d="M21 0.44L24.328 0.44V7.096L1 7.096V3.416L21 3.416V0.44ZM21.192 27.1475V16.4275H14.824C15.4213 16.8755 15.9227 17.5368 16.328 18.4115C16.7333 19.3075 16.936 20.2568 16.936 21.2595C16.936 23.0515 16.552 24.5022 15.784 25.6115C15.016 26.7422 14.0453 27.5422 12.872 28.0115C11.6987 28.5022 10.4613 28.7475 9.16 28.7475C7.58133 28.7475 6.17333 28.4382 4.936 27.8195C3.72 27.2222 2.76 26.3155 2.056 25.0995C1.352 23.9048 1 22.4328 1 20.6835C1 18.3582 1.576 16.4915 2.728 15.0835C3.88 13.6755 5.40533 12.8328 7.304 12.5555V16.1075C6.30133 16.3422 5.50133 16.8648 4.904 17.6755C4.328 18.4862 4.04 19.4995 4.04 20.7155C4.04 22.2302 4.49867 23.3608 5.416 24.1075C6.33333 24.8755 7.54933 25.2595 9.064 25.2595C10.6 25.2595 11.7733 24.8755 12.584 24.1075C13.416 23.3395 13.832 22.2088 13.832 20.7155C13.832 19.6702 13.5653 18.7848 13.032 18.0595C12.52 17.3555 11.816 16.8435 10.92 16.5235V13.0675L24.392 13.0675V27.1475H21.192ZM11.016 50.209V43.745H4.392V40.353H11.016V33.889H14.088V40.353H20.712L20.712 43.745H14.088V50.209H11.016ZM1 82.4533V78.8053L17.608 67.8293H1V64.1813H23.272V67.8293L6.696 78.8053H23.272V82.4533H1ZM20.296 90.8918H13.768V98.5718H10.792V90.8918H3.976V99.5318H1V87.2438H23.272V99.5318H20.296V90.8918ZM23.24 132.985L1 126.393V122.265L17.832 117.593L1 112.633L0.968 108.537L23.24 102.233V106.105L5.128 110.713L23.24 115.705V119.801L5.224 124.441L23.24 129.081V132.985ZM23.24 162.066H1V158.418H10.728V147.954H1V144.306H23.24V147.954H13.704V158.418H23.24V162.066ZM23.24 170.517H1V166.869H23.24V170.517ZM1 186.858L9.896 181.738V178.954H1V175.306H23.24V182.986C23.24 184.693 22.9413 186.133 22.344 187.306C21.7467 188.501 20.9467 189.386 19.944 189.962C18.9413 190.56 17.8213 190.858 16.584 190.858C15.1333 190.858 13.8107 190.432 12.616 189.578C11.4427 188.746 10.6427 187.456 10.216 185.706L1 191.21V186.858ZM12.808 178.954V182.986C12.808 184.352 13.1493 185.376 13.832 186.058C14.5147 186.762 15.432 187.114 16.584 187.114C17.736 187.114 18.632 186.773 19.272 186.09C19.9333 185.408 20.264 184.373 20.264 182.986V178.954H12.808ZM20.296 199.173H13.768V206.853H10.792V199.173H3.976V207.813H1L1 195.525H23.272V207.813H20.296V199.173ZM0.776 219.634C0.776 218.141 1.032 216.797 1.544 215.602C2.07733 214.408 2.824 213.469 3.784 212.786C4.744 212.104 5.864 211.762 7.144 211.762V215.666C6.184 215.752 5.39467 216.125 4.776 216.786C4.15733 217.469 3.848 218.418 3.848 219.634C3.848 220.893 4.14667 221.874 4.744 222.578C5.36267 223.282 6.152 223.634 7.112 223.634C7.85867 223.634 8.46667 223.41 8.936 222.962C9.40533 222.536 9.768 221.992 10.024 221.33C10.28 220.69 10.5573 219.794 10.856 218.642C11.24 217.192 11.624 216.008 12.008 215.09C12.4133 214.194 13.032 213.426 13.864 212.786C14.696 212.146 15.8053 211.826 17.192 211.826C18.472 211.826 19.592 212.146 20.552 212.786C21.512 213.426 22.248 214.322 22.76 215.474C23.272 216.626 23.528 217.96 23.528 219.474C23.528 221.629 22.984 223.389 21.896 224.754C20.8293 226.141 19.3573 226.909 17.48 227.058V223.026C18.2907 222.962 18.984 222.578 19.56 221.874C20.136 221.17 20.424 220.242 20.424 219.09C20.424 218.045 20.1573 217.192 19.624 216.53C19.0907 215.869 18.3227 215.538 17.32 215.538C16.6373 215.538 16.072 215.741 15.624 216.146C15.1973 216.573 14.856 217.106 14.6 217.746C14.344 218.386 14.0667 219.261 13.768 220.37C13.3627 221.842 12.9573 223.037 12.552 223.954C12.1467 224.893 11.5173 225.682 10.664 226.322C9.832 226.984 8.712 227.314 7.304 227.314C6.17333 227.314 5.10667 227.005 4.104 226.386C3.10133 225.789 2.29067 224.904 1.672 223.73C1.07467 222.578 0.776 221.213 0.776 219.634Z" fill="#A8A8A8"/>
</svg>
