<svg width="95" height="92" viewBox="0 0 95 92" fill="none" xmlns="http://www.w3.org/2000/svg">
<circle cx="46" cy="46" r="46" fill="white"/>
<path d="M14.92 57.224C13.3627 57.224 11.9547 56.9573 10.696 56.424C9.45867 55.8907 8.47733 55.1227 7.752 54.12C7.02667 53.1173 6.65333 51.9333 6.632 50.568H11.432C11.496 51.4853 11.816 52.2107 12.392 52.744C12.9893 53.2773 13.8 53.544 14.824 53.544C15.8693 53.544 16.6907 53.2987 17.288 52.808C17.8853 52.296 18.184 51.6347 18.184 50.824C18.184 50.1627 17.9813 49.6187 17.576 49.192C17.1707 48.7653 16.6587 48.4347 16.04 48.2C15.4427 47.944 14.6107 47.6667 13.544 47.368C12.0933 46.9413 10.9093 46.5253 9.992 46.12C9.096 45.6933 8.31733 45.064 7.656 44.232C7.016 43.3787 6.696 42.248 6.696 40.84C6.696 39.5173 7.02667 38.3653 7.688 37.384C8.34933 36.4027 9.27733 35.656 10.472 35.144C11.6667 34.6107 13.032 34.344 14.568 34.344C16.872 34.344 18.7387 34.9093 20.168 36.04C21.6187 37.1493 22.4187 38.7067 22.568 40.712H17.64C17.5973 39.944 17.2667 39.3147 16.648 38.824C16.0507 38.312 15.2507 38.056 14.248 38.056C13.3733 38.056 12.6693 38.28 12.136 38.728C11.624 39.176 11.368 39.8267 11.368 40.68C11.368 41.2773 11.56 41.7787 11.944 42.184C12.3493 42.568 12.84 42.888 13.416 43.144C14.0133 43.3787 14.8453 43.656 15.912 43.976C17.3627 44.4027 18.5467 44.8293 19.464 45.256C20.3813 45.6827 21.1707 46.3227 21.832 47.176C22.4933 48.0293 22.824 49.1493 22.824 50.536C22.824 51.7307 22.5147 52.84 21.896 53.864C21.2773 54.888 20.3707 55.7093 19.176 56.328C17.9813 56.9253 16.5627 57.224 14.92 57.224ZM34.58 57.288C32.8733 57.288 31.3373 56.9147 29.972 56.168C28.6067 55.4 27.5293 54.3227 26.74 52.936C25.972 51.5493 25.588 49.9493 25.588 48.136C25.588 46.3227 25.9827 44.7227 26.772 43.336C27.5827 41.9493 28.6813 40.8827 30.068 40.136C31.4547 39.368 33.0013 38.984 34.708 38.984C36.4147 38.984 37.9613 39.368 39.348 40.136C40.7347 40.8827 41.8227 41.9493 42.612 43.336C43.4227 44.7227 43.828 46.3227 43.828 48.136C43.828 49.9493 43.412 51.5493 42.58 52.936C41.7693 54.3227 40.66 55.4 39.252 56.168C37.8653 56.9147 36.308 57.288 34.58 57.288ZM34.58 53.384C35.3907 53.384 36.148 53.192 36.852 52.808C37.5773 52.4027 38.1533 51.8053 38.58 51.016C39.0067 50.2267 39.22 49.2667 39.22 48.136C39.22 46.4507 38.772 45.16 37.876 44.264C37.0013 43.3467 35.924 42.888 34.644 42.888C33.364 42.888 32.2867 43.3467 31.412 44.264C30.5587 45.16 30.132 46.4507 30.132 48.136C30.132 49.8213 30.548 51.1227 31.38 52.04C32.2333 52.936 33.3 53.384 34.58 53.384Z" fill="url(#paint0_linear_511_1176)"/>
<path d="M54.9223 34.664C57.2689 34.664 59.3276 35.1227 61.0983 36.04C62.8903 36.9573 64.2663 38.2693 65.2263 39.976C66.2076 41.6613 66.6983 43.624 66.6983 45.864C66.6983 48.104 66.2076 50.0667 65.2263 51.752C64.2663 53.416 62.8903 54.7067 61.0983 55.624C59.3276 56.5413 57.2689 57 54.9223 57H47.1143V34.664H54.9223ZM54.7623 53.192C57.1089 53.192 58.9223 52.552 60.2023 51.272C61.4823 49.992 62.1223 48.1893 62.1223 45.864C62.1223 43.5387 61.4823 41.7253 60.2023 40.424C58.9223 39.1013 57.1089 38.44 54.7623 38.44H51.5943V53.192H54.7623ZM77.9238 57.288C76.2171 57.288 74.6811 56.9147 73.3158 56.168C71.9504 55.4 70.8731 54.3227 70.0838 52.936C69.3158 51.5493 68.9318 49.9493 68.9318 48.136C68.9318 46.3227 69.3264 44.7227 70.1158 43.336C70.9264 41.9493 72.0251 40.8827 73.4118 40.136C74.7984 39.368 76.3451 38.984 78.0518 38.984C79.7584 38.984 81.3051 39.368 82.6918 40.136C84.0784 40.8827 85.1664 41.9493 85.9558 43.336C86.7664 44.7227 87.1718 46.3227 87.1718 48.136C87.1718 49.9493 86.7558 51.5493 85.9237 52.936C85.1131 54.3227 84.0038 55.4 82.5958 56.168C81.2091 56.9147 79.6518 57.288 77.9238 57.288ZM77.9238 53.384C78.7344 53.384 79.4918 53.192 80.1958 52.808C80.9211 52.4027 81.4971 51.8053 81.9238 51.016C82.3504 50.2267 82.5638 49.2667 82.5638 48.136C82.5638 46.4507 82.1158 45.16 81.2198 44.264C80.3451 43.3467 79.2678 42.888 77.9878 42.888C76.7078 42.888 75.6304 43.3467 74.7558 44.264C73.9024 45.16 73.4758 46.4507 73.4758 48.136C73.4758 49.8213 73.8918 51.1227 74.7238 52.04C75.5771 52.936 76.6438 53.384 77.9238 53.384Z" fill="url(#paint1_linear_511_1176)"/>
<defs>
<linearGradient id="paint0_linear_511_1176" x1="43.0357" y1="39.1389" x2="-2.86273" y2="57.7333" gradientUnits="userSpaceOnUse">
<stop stop-color="#8840FB"/>
<stop offset="0.677667" stop-color="#2B74FB"/>
</linearGradient>
<linearGradient id="paint1_linear_511_1176" x1="103.437" y1="33" x2="17.0305" y2="75.4668" gradientUnits="userSpaceOnUse">
<stop offset="0.193344"/>
<stop offset="0.374172" stop-color="#3A3737"/>
<stop offset="0.555" stop-color="#615A5A"/>
</linearGradient>
</defs>
</svg>
