<svg width="84" height="36" viewBox="0 0 84 36" fill="none" xmlns="http://www.w3.org/2000/svg">
<path d="M9.92 29.224C8.36267 29.224 6.95467 28.9573 5.696 28.424C4.45867 27.8907 3.47733 27.1227 2.752 26.12C2.02667 25.1173 1.65333 23.9333 1.632 22.568H6.432C6.496 23.4853 6.816 24.2107 7.392 24.744C7.98933 25.2773 8.8 25.544 9.824 25.544C10.8693 25.544 11.6907 25.2987 12.288 24.808C12.8853 24.296 13.184 23.6347 13.184 22.824C13.184 22.1627 12.9813 21.6187 12.576 21.192C12.1707 20.7653 11.6587 20.4347 11.04 20.2C10.4427 19.944 9.61067 19.6667 8.544 19.368C7.09333 18.9413 5.90933 18.5253 4.992 18.12C4.096 17.6933 3.31733 17.064 2.656 16.232C2.016 15.3787 1.696 14.248 1.696 12.84C1.696 11.5173 2.02667 10.3653 2.688 9.384C3.34933 8.40267 4.27733 7.656 5.472 7.144C6.66667 6.61067 8.032 6.344 9.568 6.344C11.872 6.344 13.7387 6.90933 15.168 8.04C16.6187 9.14933 17.4187 10.7067 17.568 12.712H12.64C12.5973 11.944 12.2667 11.3147 11.648 10.824C11.0507 10.312 10.2507 10.056 9.248 10.056C8.37333 10.056 7.66933 10.28 7.136 10.728C6.624 11.176 6.368 11.8267 6.368 12.68C6.368 13.2773 6.56 13.7787 6.944 14.184C7.34933 14.568 7.84 14.888 8.416 15.144C9.01333 15.3787 9.84533 15.656 10.912 15.976C12.3627 16.4027 13.5467 16.8293 14.464 17.256C15.3813 17.6827 16.1707 18.3227 16.832 19.176C17.4933 20.0293 17.824 21.1493 17.824 22.536C17.824 23.7307 17.5147 24.84 16.896 25.864C16.2773 26.888 15.3707 27.7093 14.176 28.328C12.9813 28.9253 11.5627 29.224 9.92 29.224ZM29.58 29.288C27.8733 29.288 26.3373 28.9147 24.972 28.168C23.6067 27.4 22.5293 26.3227 21.74 24.936C20.972 23.5493 20.588 21.9493 20.588 20.136C20.588 18.3227 20.9827 16.7227 21.772 15.336C22.5827 13.9493 23.6813 12.8827 25.068 12.136C26.4547 11.368 28.0013 10.984 29.708 10.984C31.4147 10.984 32.9613 11.368 34.348 12.136C35.7347 12.8827 36.8227 13.9493 37.612 15.336C38.4227 16.7227 38.828 18.3227 38.828 20.136C38.828 21.9493 38.412 23.5493 37.58 24.936C36.7693 26.3227 35.66 27.4 34.252 28.168C32.8653 28.9147 31.308 29.288 29.58 29.288ZM29.58 25.384C30.3907 25.384 31.148 25.192 31.852 24.808C32.5773 24.4027 33.1533 23.8053 33.58 23.016C34.0067 22.2267 34.22 21.2667 34.22 20.136C34.22 18.4507 33.772 17.16 32.876 16.264C32.0013 15.3467 30.924 14.888 29.644 14.888C28.364 14.888 27.2867 15.3467 26.412 16.264C25.5587 17.16 25.132 18.4507 25.132 20.136C25.132 21.8213 25.548 23.1227 26.38 24.04C27.2333 24.936 28.3 25.384 29.58 25.384Z" fill="url(#paint0_linear_424_1162)"/>
<path d="M49.9223 6.664C52.2689 6.664 54.3276 7.12267 56.0983 8.04C57.8903 8.95733 59.2663 10.2693 60.2263 11.976C61.2076 13.6613 61.6983 15.624 61.6983 17.864C61.6983 20.104 61.2076 22.0667 60.2263 23.752C59.2663 25.416 57.8903 26.7067 56.0983 27.624C54.3276 28.5413 52.2689 29 49.9223 29H42.1143V6.664H49.9223ZM49.7623 25.192C52.1089 25.192 53.9223 24.552 55.2023 23.272C56.4823 21.992 57.1223 20.1893 57.1223 17.864C57.1223 15.5387 56.4823 13.7253 55.2023 12.424C53.9223 11.1013 52.1089 10.44 49.7623 10.44H46.5943V25.192H49.7623ZM72.9238 29.288C71.2171 29.288 69.6811 28.9147 68.3158 28.168C66.9504 27.4 65.8731 26.3227 65.0838 24.936C64.3158 23.5493 63.9318 21.9493 63.9318 20.136C63.9318 18.3227 64.3264 16.7227 65.1158 15.336C65.9264 13.9493 67.0251 12.8827 68.4118 12.136C69.7984 11.368 71.3451 10.984 73.0518 10.984C74.7584 10.984 76.3051 11.368 77.6918 12.136C79.0784 12.8827 80.1664 13.9493 80.9558 15.336C81.7664 16.7227 82.1718 18.3227 82.1718 20.136C82.1718 21.9493 81.7558 23.5493 80.9237 24.936C80.1131 26.3227 79.0038 27.4 77.5958 28.168C76.2091 28.9147 74.6518 29.288 72.9238 29.288ZM72.9238 25.384C73.7344 25.384 74.4918 25.192 75.1958 24.808C75.9211 24.4027 76.4971 23.8053 76.9238 23.016C77.3504 22.2267 77.5638 21.2667 77.5638 20.136C77.5638 18.4507 77.1158 17.16 76.2198 16.264C75.3451 15.3467 74.2678 14.888 72.9878 14.888C71.7078 14.888 70.6304 15.3467 69.7558 16.264C68.9024 17.16 68.4758 18.4507 68.4758 20.136C68.4758 21.8213 68.8918 23.1227 69.7238 24.04C70.5771 24.936 71.6438 25.384 72.9238 25.384Z" fill="url(#paint1_linear_424_1162)"/>
<path d="M49.9223 6.664C52.2689 6.664 54.3276 7.12267 56.0983 8.04C57.8903 8.95733 59.2663 10.2693 60.2263 11.976C61.2076 13.6613 61.6983 15.624 61.6983 17.864C61.6983 20.104 61.2076 22.0667 60.2263 23.752C59.2663 25.416 57.8903 26.7067 56.0983 27.624C54.3276 28.5413 52.2689 29 49.9223 29H42.1143V6.664H49.9223ZM49.7623 25.192C52.1089 25.192 53.9223 24.552 55.2023 23.272C56.4823 21.992 57.1223 20.1893 57.1223 17.864C57.1223 15.5387 56.4823 13.7253 55.2023 12.424C53.9223 11.1013 52.1089 10.44 49.7623 10.44H46.5943V25.192H49.7623ZM72.9238 29.288C71.2171 29.288 69.6811 28.9147 68.3158 28.168C66.9504 27.4 65.8731 26.3227 65.0838 24.936C64.3158 23.5493 63.9318 21.9493 63.9318 20.136C63.9318 18.3227 64.3264 16.7227 65.1158 15.336C65.9264 13.9493 67.0251 12.8827 68.4118 12.136C69.7984 11.368 71.3451 10.984 73.0518 10.984C74.7584 10.984 76.3051 11.368 77.6918 12.136C79.0784 12.8827 80.1664 13.9493 80.9558 15.336C81.7664 16.7227 82.1718 18.3227 82.1718 20.136C82.1718 21.9493 81.7558 23.5493 80.9237 24.936C80.1131 26.3227 79.0038 27.4 77.5958 28.168C76.2091 28.9147 74.6518 29.288 72.9238 29.288ZM72.9238 25.384C73.7344 25.384 74.4918 25.192 75.1958 24.808C75.9211 24.4027 76.4971 23.8053 76.9238 23.016C77.3504 22.2267 77.5638 21.2667 77.5638 20.136C77.5638 18.4507 77.1158 17.16 76.2198 16.264C75.3451 15.3467 74.2678 14.888 72.9878 14.888C71.7078 14.888 70.6304 15.3467 69.7558 16.264C68.9024 17.16 68.4758 18.4507 68.4758 20.136C68.4758 21.8213 68.8918 23.1227 69.7238 24.04C70.5771 24.936 71.6438 25.384 72.9238 25.384Z" fill="#0D0404"/>
<path d="M49.9223 6.664C52.2689 6.664 54.3276 7.12267 56.0983 8.04C57.8903 8.95733 59.2663 10.2693 60.2263 11.976C61.2076 13.6613 61.6983 15.624 61.6983 17.864C61.6983 20.104 61.2076 22.0667 60.2263 23.752C59.2663 25.416 57.8903 26.7067 56.0983 27.624C54.3276 28.5413 52.2689 29 49.9223 29H42.1143V6.664H49.9223ZM49.7623 25.192C52.1089 25.192 53.9223 24.552 55.2023 23.272C56.4823 21.992 57.1223 20.1893 57.1223 17.864C57.1223 15.5387 56.4823 13.7253 55.2023 12.424C53.9223 11.1013 52.1089 10.44 49.7623 10.44H46.5943V25.192H49.7623ZM72.9238 29.288C71.2171 29.288 69.6811 28.9147 68.3158 28.168C66.9504 27.4 65.8731 26.3227 65.0838 24.936C64.3158 23.5493 63.9318 21.9493 63.9318 20.136C63.9318 18.3227 64.3264 16.7227 65.1158 15.336C65.9264 13.9493 67.0251 12.8827 68.4118 12.136C69.7984 11.368 71.3451 10.984 73.0518 10.984C74.7584 10.984 76.3051 11.368 77.6918 12.136C79.0784 12.8827 80.1664 13.9493 80.9558 15.336C81.7664 16.7227 82.1718 18.3227 82.1718 20.136C82.1718 21.9493 81.7558 23.5493 80.9237 24.936C80.1131 26.3227 79.0038 27.4 77.5958 28.168C76.2091 28.9147 74.6518 29.288 72.9238 29.288ZM72.9238 25.384C73.7344 25.384 74.4918 25.192 75.1958 24.808C75.9211 24.4027 76.4971 23.8053 76.9238 23.016C77.3504 22.2267 77.5638 21.2667 77.5638 20.136C77.5638 18.4507 77.1158 17.16 76.2198 16.264C75.3451 15.3467 74.2678 14.888 72.9878 14.888C71.7078 14.888 70.6304 15.3467 69.7558 16.264C68.9024 17.16 68.4758 18.4507 68.4758 20.136C68.4758 21.8213 68.8918 23.1227 69.7238 24.04C70.5771 24.936 71.6438 25.384 72.9238 25.384Z" fill="black" fill-opacity="0.2"/>
<defs>
<linearGradient id="paint0_linear_424_1162" x1="35.5" y1="8.5" x2="-10.9085" y2="21.1733" gradientUnits="userSpaceOnUse">
<stop stop-color="#8840FB"/>
<stop offset="0.677667" stop-color="#2B74FB"/>
</linearGradient>
<linearGradient id="paint1_linear_424_1162" x1="35.5" y1="8.5" x2="-10.9085" y2="21.1733" gradientUnits="userSpaceOnUse">
<stop stop-color="#8840FB"/>
<stop offset="0.677667" stop-color="#2B74FB"/>
</linearGradient>
</defs>
</svg>
