<svg width="637" height="52" viewBox="0 0 637 52" fill="none" xmlns="http://www.w3.org/2000/svg">
<path d="M47.096 4.496L37.736 38H29.816L23.528 14.144L16.952 38L9.08 38.048L0.0560001 4.496H7.256L13.16 30.512L19.976 4.496H27.464L33.896 30.368L39.848 4.496H47.096ZM76.2039 24.128C76.2039 25.088 76.1399 25.952 76.0119 26.72H56.5719C56.7319 28.64 57.4039 30.144 58.5879 31.232C59.7719 32.32 61.2279 32.864 62.9559 32.864C65.4519 32.864 67.2279 31.792 68.2839 29.648H75.5319C74.7639 32.208 73.2919 34.32 71.1159 35.984C68.9399 37.616 66.2679 38.432 63.0999 38.432C60.5399 38.432 58.2359 37.872 56.1879 36.752C54.1719 35.6 52.5879 33.984 51.4359 31.904C50.3159 29.824 49.7559 27.424 49.7559 24.704C49.7559 21.952 50.3159 19.536 51.4359 17.456C52.5559 15.376 54.1239 13.776 56.1399 12.656C58.1559 11.536 60.4759 10.976 63.0999 10.976C65.6279 10.976 67.8839 11.52 69.8679 12.608C71.8839 13.696 73.4359 15.248 74.5239 17.264C75.6439 19.248 76.2039 21.536 76.2039 24.128ZM69.2439 22.208C69.2119 20.48 68.5879 19.104 67.3719 18.08C66.1559 17.024 64.6679 16.496 62.9079 16.496C61.2439 16.496 59.8359 17.008 58.6839 18.032C57.5639 19.024 56.8759 20.416 56.6199 22.208H69.2439ZM82.4529 4.496H89.5089L84.3249 16.592H79.7169L82.4529 4.496ZM101.048 15.536C101.912 14.128 103.032 13.024 104.408 12.224C105.816 11.424 107.416 11.024 109.208 11.024V18.08H107.432C105.32 18.08 103.72 18.576 102.632 19.568C101.576 20.56 101.048 22.288 101.048 24.752V38H94.3276V11.408H101.048V15.536ZM138.454 24.128C138.454 25.088 138.39 25.952 138.262 26.72H118.822C118.982 28.64 119.654 30.144 120.838 31.232C122.022 32.32 123.478 32.864 125.206 32.864C127.702 32.864 129.478 31.792 130.534 29.648H137.782C137.014 32.208 135.542 34.32 133.366 35.984C131.19 37.616 128.518 38.432 125.35 38.432C122.79 38.432 120.486 37.872 118.438 36.752C116.422 35.6 114.838 33.984 113.686 31.904C112.566 29.824 112.006 27.424 112.006 24.704C112.006 21.952 112.566 19.536 113.686 17.456C114.806 15.376 116.374 13.776 118.39 12.656C120.406 11.536 122.726 10.976 125.35 10.976C127.878 10.976 130.134 11.52 132.118 12.608C134.134 13.696 135.686 15.248 136.774 17.264C137.894 19.248 138.454 21.536 138.454 24.128ZM131.494 22.208C131.462 20.48 130.838 19.104 129.622 18.08C128.406 17.024 126.918 16.496 125.158 16.496C123.494 16.496 122.086 17.008 120.934 18.032C119.814 19.024 119.126 20.416 118.87 22.208H131.494Z" fill="black"/>
<path d="M177.596 4.496V9.92H168.668V38H161.948V9.92H153.02V4.496H177.596ZM189.22 15.536C190.084 14.128 191.204 13.024 192.58 12.224C193.988 11.424 195.588 11.024 197.38 11.024V18.08H195.604C193.492 18.08 191.892 18.576 190.804 19.568C189.748 20.56 189.22 22.288 189.22 24.752V38H182.5V11.408H189.22V15.536ZM200.178 24.608C200.178 21.92 200.706 19.536 201.762 17.456C202.85 15.376 204.306 13.776 206.13 12.656C207.986 11.536 210.05 10.976 212.322 10.976C214.306 10.976 216.034 11.376 217.506 12.176C219.01 12.976 220.21 13.984 221.106 15.2V11.408H227.874V38H221.106V34.112C220.242 35.36 219.042 36.4 217.506 37.232C216.002 38.032 214.258 38.432 212.274 38.432C210.034 38.432 207.986 37.856 206.13 36.704C204.306 35.552 202.85 33.936 201.762 31.856C200.706 29.744 200.178 27.328 200.178 24.608ZM221.106 24.704C221.106 23.072 220.786 21.68 220.146 20.528C219.506 19.344 218.642 18.448 217.554 17.84C216.466 17.2 215.298 16.88 214.05 16.88C212.802 16.88 211.65 17.184 210.594 17.792C209.538 18.4 208.674 19.296 208.002 20.48C207.362 21.632 207.042 23.008 207.042 24.608C207.042 26.208 207.362 27.616 208.002 28.832C208.674 30.016 209.538 30.928 210.594 31.568C211.682 32.208 212.834 32.528 214.05 32.528C215.298 32.528 216.466 32.224 217.554 31.616C218.642 30.976 219.506 30.08 220.146 28.928C220.786 27.744 221.106 26.336 221.106 24.704ZM249.173 11.024C252.341 11.024 254.901 12.032 256.853 14.048C258.805 16.032 259.781 18.816 259.781 22.4V38H253.061V23.312C253.061 21.2 252.533 19.584 251.477 18.464C250.421 17.312 248.981 16.736 247.157 16.736C245.301 16.736 243.829 17.312 242.741 18.464C241.685 19.584 241.157 21.2 241.157 23.312V38H234.437V11.408H241.157V14.72C242.053 13.568 243.189 12.672 244.565 12.032C245.973 11.36 247.509 11.024 249.173 11.024ZM276.347 38.432C274.171 38.432 272.219 38.048 270.491 37.28C268.763 36.48 267.387 35.408 266.363 34.064C265.371 32.72 264.827 31.232 264.731 29.6H271.499C271.627 30.624 272.123 31.472 272.987 32.144C273.883 32.816 274.987 33.152 276.299 33.152C277.579 33.152 278.571 32.896 279.275 32.384C280.011 31.872 280.379 31.216 280.379 30.416C280.379 29.552 279.931 28.912 279.035 28.496C278.171 28.048 276.779 27.568 274.859 27.056C272.875 26.576 271.243 26.08 269.963 25.568C268.715 25.056 267.627 24.272 266.699 23.216C265.803 22.16 265.355 20.736 265.355 18.944C265.355 17.472 265.771 16.128 266.603 14.912C267.467 13.696 268.683 12.736 270.251 12.032C271.851 11.328 273.723 10.976 275.867 10.976C279.035 10.976 281.563 11.776 283.451 13.376C285.339 14.944 286.379 17.072 286.571 19.76H280.139C280.043 18.704 279.595 17.872 278.795 17.264C278.027 16.624 276.987 16.304 275.675 16.304C274.459 16.304 273.515 16.528 272.843 16.976C272.203 17.424 271.883 18.048 271.883 18.848C271.883 19.744 272.331 20.432 273.227 20.912C274.123 21.36 275.515 21.824 277.403 22.304C279.323 22.784 280.907 23.28 282.155 23.792C283.403 24.304 284.475 25.104 285.371 26.192C286.299 27.248 286.779 28.656 286.811 30.416C286.811 31.952 286.379 33.328 285.515 34.544C284.683 35.76 283.467 36.72 281.867 37.424C280.299 38.096 278.459 38.432 276.347 38.432ZM304.52 16.928H299.864V38H293.048V16.928H290.024V11.408H293.048V10.064C293.048 6.8 293.976 4.4 295.832 2.864C297.688 1.328 300.488 0.607999 304.232 0.704V6.368C302.6 6.336 301.464 6.608 300.824 7.184C300.184 7.76 299.864 8.8 299.864 10.304V11.408H304.52V16.928ZM320.683 38.432C318.123 38.432 315.819 37.872 313.771 36.752C311.723 35.6 310.107 33.984 308.923 31.904C307.771 29.824 307.195 27.424 307.195 24.704C307.195 21.984 307.787 19.584 308.971 17.504C310.187 15.424 311.835 13.824 313.915 12.704C315.995 11.552 318.315 10.976 320.875 10.976C323.435 10.976 325.755 11.552 327.835 12.704C329.915 13.824 331.547 15.424 332.731 17.504C333.947 19.584 334.555 21.984 334.555 24.704C334.555 27.424 333.931 29.824 332.682 31.904C331.467 33.984 329.803 35.6 327.691 36.752C325.611 37.872 323.275 38.432 320.683 38.432ZM320.683 32.576C321.899 32.576 323.035 32.288 324.091 31.712C325.179 31.104 326.043 30.208 326.683 29.024C327.323 27.84 327.643 26.4 327.643 24.704C327.643 22.176 326.971 20.24 325.627 18.896C324.315 17.52 322.699 16.832 320.779 16.832C318.859 16.832 317.243 17.52 315.931 18.896C314.651 20.24 314.011 22.176 314.011 24.704C314.011 27.232 314.635 29.184 315.883 30.56C317.163 31.904 318.763 32.576 320.683 32.576ZM346.204 15.536C347.068 14.128 348.188 13.024 349.564 12.224C350.972 11.424 352.572 11.024 354.364 11.024V18.08H352.588C350.476 18.08 348.876 18.576 347.788 19.568C346.732 20.56 346.204 22.288 346.204 24.752V38H339.484V11.408H346.204V15.536ZM391.914 11.024C395.178 11.024 397.802 12.032 399.786 14.048C401.802 16.032 402.81 18.816 402.81 22.4V38H396.09V23.312C396.09 21.232 395.562 19.648 394.506 18.56C393.45 17.44 392.01 16.88 390.186 16.88C388.362 16.88 386.906 17.44 385.818 18.56C384.762 19.648 384.234 21.232 384.234 23.312V38H377.514V23.312C377.514 21.232 376.986 19.648 375.93 18.56C374.874 17.44 373.434 16.88 371.61 16.88C369.754 16.88 368.282 17.44 367.194 18.56C366.138 19.648 365.61 21.232 365.61 23.312V38H358.89V11.408H365.61V14.624C366.474 13.504 367.578 12.624 368.922 11.984C370.298 11.344 371.802 11.024 373.434 11.024C375.514 11.024 377.37 11.472 379.002 12.368C380.634 13.232 381.898 14.48 382.794 16.112C383.658 14.576 384.906 13.344 386.538 12.416C388.202 11.488 389.994 11.024 391.914 11.024ZM412.595 8.24C411.411 8.24 410.419 7.872 409.619 7.136C408.851 6.368 408.467 5.424 408.467 4.304C408.467 3.184 408.851 2.256 409.619 1.52C410.419 0.751998 411.411 0.367998 412.595 0.367998C413.779 0.367998 414.755 0.751998 415.523 1.52C416.323 2.256 416.723 3.184 416.723 4.304C416.723 5.424 416.323 6.368 415.523 7.136C414.755 7.872 413.779 8.24 412.595 8.24ZM415.907 11.408V38H409.187V11.408H415.907ZM437.282 11.024C440.45 11.024 443.01 12.032 444.962 14.048C446.914 16.032 447.89 18.816 447.89 22.4V38H441.17V23.312C441.17 21.2 440.642 19.584 439.586 18.464C438.53 17.312 437.09 16.736 435.266 16.736C433.41 16.736 431.938 17.312 430.85 18.464C429.794 19.584 429.266 21.2 429.266 23.312V38H422.546V11.408H429.266V14.72C430.162 13.568 431.298 12.672 432.674 12.032C434.082 11.36 435.618 11.024 437.282 11.024ZM464.697 10.976C466.681 10.976 468.425 11.376 469.929 12.176C471.433 12.944 472.617 13.952 473.481 15.2V11.408H480.249V38.192C480.249 40.656 479.753 42.848 478.761 44.768C477.769 46.72 476.281 48.256 474.297 49.376C472.313 50.528 469.913 51.104 467.097 51.104C463.321 51.104 460.217 50.224 457.785 48.464C455.385 46.704 454.025 44.304 453.705 41.264H460.377C460.729 42.48 461.481 43.44 462.633 44.144C463.817 44.88 465.241 45.248 466.905 45.248C468.857 45.248 470.441 44.656 471.657 43.472C472.873 42.32 473.481 40.56 473.481 38.192V34.064C472.617 35.312 471.417 36.352 469.881 37.184C468.377 38.016 466.649 38.432 464.697 38.432C462.457 38.432 460.409 37.856 458.553 36.704C456.697 35.552 455.225 33.936 454.137 31.856C453.081 29.744 452.553 27.328 452.553 24.608C452.553 21.92 453.081 19.536 454.137 17.456C455.225 15.376 456.681 13.776 458.505 12.656C460.361 11.536 462.425 10.976 464.697 10.976ZM473.481 24.704C473.481 23.072 473.161 21.68 472.521 20.528C471.881 19.344 471.017 18.448 469.929 17.84C468.841 17.2 467.673 16.88 466.425 16.88C465.177 16.88 464.025 17.184 462.969 17.792C461.913 18.4 461.049 19.296 460.377 20.48C459.737 21.632 459.417 23.008 459.417 24.608C459.417 26.208 459.737 27.616 460.377 28.832C461.049 30.016 461.913 30.928 462.969 31.568C464.057 32.208 465.209 32.528 466.425 32.528C467.673 32.528 468.841 32.224 469.929 31.616C471.017 30.976 471.881 30.08 472.521 28.928C473.161 27.744 473.481 26.336 473.481 24.704ZM526.042 4.496V38H519.322V23.744H504.97V38H498.25V4.496H504.97V18.272H519.322V4.496H526.042ZM536.064 8.24C534.88 8.24 533.888 7.872 533.088 7.136C532.32 6.368 531.936 5.424 531.936 4.304C531.936 3.184 532.32 2.256 533.088 1.52C533.888 0.751998 534.88 0.367998 536.064 0.367998C537.248 0.367998 538.224 0.751998 538.992 1.52C539.792 2.256 540.192 3.184 540.192 4.304C540.192 5.424 539.792 6.368 538.992 7.136C538.224 7.872 537.248 8.24 536.064 8.24ZM539.376 11.408V38H532.656V11.408H539.376ZM552.735 15.536C553.599 14.128 554.719 13.024 556.095 12.224C557.503 11.424 559.103 11.024 560.895 11.024V18.08H559.119C557.007 18.08 555.407 18.576 554.319 19.568C553.263 20.56 552.735 22.288 552.735 24.752V38H546.015V11.408H552.735V15.536ZM568.829 8.24C567.645 8.24 566.653 7.872 565.853 7.136C565.085 6.368 564.701 5.424 564.701 4.304C564.701 3.184 565.085 2.256 565.853 1.52C566.653 0.751998 567.645 0.367998 568.829 0.367998C570.013 0.367998 570.989 0.751998 571.757 1.52C572.557 2.256 572.957 3.184 572.957 4.304C572.957 5.424 572.557 6.368 571.757 7.136C570.989 7.872 570.013 8.24 568.829 8.24ZM572.141 11.408V38H565.421V11.408H572.141ZM593.517 11.024C596.685 11.024 599.245 12.032 601.197 14.048C603.149 16.032 604.125 18.816 604.125 22.4V38H597.405V23.312C597.405 21.2 596.877 19.584 595.821 18.464C594.765 17.312 593.325 16.736 591.501 16.736C589.645 16.736 588.173 17.312 587.085 18.464C586.029 19.584 585.501 21.2 585.501 23.312V38H578.781V11.408H585.501V14.72C586.397 13.568 587.533 12.672 588.909 12.032C590.317 11.36 591.853 11.024 593.517 11.024ZM620.931 10.976C622.915 10.976 624.659 11.376 626.163 12.176C627.667 12.944 628.851 13.952 629.715 15.2V11.408H636.483V38.192C636.483 40.656 635.987 42.848 634.995 44.768C634.003 46.72 632.515 48.256 630.531 49.376C628.547 50.528 626.147 51.104 623.331 51.104C619.555 51.104 616.451 50.224 614.019 48.464C611.619 46.704 610.259 44.304 609.939 41.264H616.611C616.963 42.48 617.715 43.44 618.867 44.144C620.051 44.88 621.475 45.248 623.139 45.248C625.091 45.248 626.675 44.656 627.891 43.472C629.107 42.32 629.715 40.56 629.715 38.192V34.064C628.851 35.312 627.651 36.352 626.115 37.184C624.611 38.016 622.883 38.432 620.931 38.432C618.691 38.432 616.643 37.856 614.787 36.704C612.931 35.552 611.459 33.936 610.371 31.856C609.315 29.744 608.787 27.328 608.787 24.608C608.787 21.92 609.315 19.536 610.371 17.456C611.459 15.376 612.915 13.776 614.739 12.656C616.595 11.536 618.659 10.976 620.931 10.976ZM629.715 24.704C629.715 23.072 629.395 21.68 628.755 20.528C628.115 19.344 627.251 18.448 626.163 17.84C625.075 17.2 623.907 16.88 622.659 16.88C621.411 16.88 620.259 17.184 619.203 17.792C618.147 18.4 617.283 19.296 616.611 20.48C615.971 21.632 615.651 23.008 615.651 24.608C615.651 26.208 615.971 27.616 616.611 28.832C617.283 30.016 618.147 30.928 619.203 31.568C620.291 32.208 621.443 32.528 622.659 32.528C623.907 32.528 625.075 32.224 626.163 31.616C627.251 30.976 628.115 30.08 628.755 28.928C629.395 27.744 629.715 26.336 629.715 24.704Z" fill="url(#paint0_linear_6_2453)"/>
<defs>
<linearGradient id="paint0_linear_6_2453" x1="661.5" y1="6.00001" x2="171.674" y2="133.277" gradientUnits="userSpaceOnUse">
<stop stop-color="#6A9CEE"/>
<stop offset="0.52278" stop-color="#8840FB"/>
<stop offset="1" stop-color="#FB8B40"/>
</linearGradient>
</defs>
</svg>
